G04 (created by PCBNEW-RS274X (2012-jan-04)-stable) date Mon 13 Aug 2012 10:18:50 PM CEST*
G01*
G70*
G90*
%MOIN*%
G04 Gerber Fmt 3.4, Leading zero omitted, Abs format*
%FSLAX34Y34*%
G04 APERTURE LIST*
%ADD10C,0.006000*%
%ADD11R,0.050000X0.020000*%
%ADD12R,0.098400X0.196900*%
%ADD13R,0.196900X0.098400*%
%ADD14R,0.080000X0.060000*%
%ADD15C,0.024000*%
%ADD16C,0.008000*%
G04 APERTURE END LIST*
G54D10*
G54D11*
X61700Y-37250D03*
X61700Y-37750D03*
X61700Y-38250D03*
X61700Y-38750D03*
X61700Y-39250D03*
X61700Y-39750D03*
X61700Y-40250D03*
X61700Y-40750D03*
X61700Y-41250D03*
X61700Y-41750D03*
X61700Y-42250D03*
X61700Y-42750D03*
X61700Y-43250D03*
X61700Y-43750D03*
X65300Y-43750D03*
X65300Y-43250D03*
X65300Y-42750D03*
X65300Y-42250D03*
X65300Y-41750D03*
X65300Y-41250D03*
X65300Y-40750D03*
X65300Y-40250D03*
X65300Y-39750D03*
X65300Y-39250D03*
X65300Y-38750D03*
X65300Y-38250D03*
X65300Y-37750D03*
X65300Y-37250D03*
G54D12*
X67000Y-29500D03*
G54D13*
X70500Y-31500D03*
X70500Y-33000D03*
X70500Y-34500D03*
X70500Y-38000D03*
X70500Y-39500D03*
X70500Y-41000D03*
X70500Y-44500D03*
X70500Y-46000D03*
X70500Y-47500D03*
X56500Y-49000D03*
X56500Y-47500D03*
X56500Y-46000D03*
X56500Y-42500D03*
X56500Y-41000D03*
X56500Y-39500D03*
X56500Y-36000D03*
X56500Y-34500D03*
X56500Y-33000D03*
X70500Y-36000D03*
X70500Y-42500D03*
X70500Y-49000D03*
X56500Y-44500D03*
X56500Y-38000D03*
X56500Y-31500D03*
G54D12*
X59500Y-29500D03*
X64000Y-29500D03*
X65500Y-29500D03*
X62500Y-29500D03*
X61000Y-29500D03*
G54D14*
X61000Y-36150D03*
X61000Y-34850D03*
G54D15*
X59500Y-29500D02*
X59500Y-33350D01*
X59500Y-33350D02*
X61000Y-34850D01*
X61000Y-34850D02*
X61650Y-34850D01*
X62000Y-36950D02*
X61700Y-37250D01*
X62000Y-35200D02*
X62000Y-36950D01*
X61650Y-34850D02*
X62000Y-35200D01*
X65300Y-40750D02*
X67550Y-40750D01*
X68800Y-34500D02*
X70500Y-34500D01*
X68000Y-35300D02*
X68800Y-34500D01*
X68000Y-40300D02*
X68000Y-35300D01*
X67550Y-40750D02*
X68000Y-40300D01*
X65300Y-41750D02*
X67950Y-41750D01*
X67950Y-41750D02*
X69000Y-40700D01*
X69000Y-40700D02*
X69000Y-39900D01*
X69400Y-39500D02*
X70500Y-39500D01*
X69000Y-39900D02*
X69400Y-39500D01*
X65300Y-42250D02*
X68550Y-42250D01*
X69300Y-41000D02*
X70500Y-41000D01*
X69000Y-41300D02*
X69300Y-41000D01*
X69000Y-41800D02*
X69000Y-41300D01*
X68550Y-42250D02*
X69000Y-41800D01*
X70500Y-44500D02*
X68200Y-44500D01*
X66450Y-42750D02*
X65300Y-42750D01*
X68200Y-44500D02*
X66450Y-42750D01*
X66100Y-44900D02*
X67200Y-46000D01*
X67200Y-46000D02*
X70500Y-46000D01*
X65300Y-43250D02*
X65650Y-43250D01*
X66100Y-43700D02*
X66100Y-44900D01*
X65650Y-43250D02*
X66100Y-43700D01*
X64850Y-38750D02*
X65300Y-38750D01*
X65500Y-32200D02*
X64500Y-33200D01*
X64500Y-38400D02*
X64850Y-38750D01*
X65500Y-29500D02*
X65500Y-32200D01*
X64500Y-33200D02*
X64500Y-38400D01*
X70500Y-47500D02*
X66700Y-47500D01*
X65300Y-46100D02*
X65300Y-43750D01*
X66700Y-47500D02*
X65300Y-46100D01*
X65300Y-39250D02*
X64650Y-39250D01*
X64650Y-39250D02*
X64000Y-38600D01*
X64000Y-38600D02*
X64000Y-29500D01*
X61700Y-47100D02*
X61700Y-43750D01*
X59800Y-49000D02*
X61700Y-47100D01*
X56500Y-49000D02*
X59800Y-49000D01*
X69100Y-31500D02*
X67000Y-33600D01*
X67000Y-33600D02*
X67000Y-39100D01*
X67000Y-39100D02*
X66350Y-39750D01*
X66350Y-39750D02*
X65300Y-39750D01*
X70500Y-31500D02*
X69100Y-31500D01*
X56500Y-47500D02*
X59100Y-47500D01*
X60600Y-43900D02*
X61250Y-43250D01*
X60600Y-46000D02*
X60600Y-43900D01*
X59100Y-47500D02*
X60600Y-46000D01*
X61250Y-43250D02*
X61700Y-43250D01*
X69300Y-33000D02*
X70500Y-33000D01*
X67500Y-39798D02*
X67500Y-34800D01*
X67048Y-40250D02*
X67500Y-39798D01*
X65300Y-40250D02*
X67048Y-40250D01*
X67500Y-34800D02*
X69300Y-33000D01*
X59700Y-45200D02*
X59700Y-43500D01*
X58900Y-46000D02*
X59700Y-45200D01*
X59700Y-43500D02*
X60450Y-42750D01*
X60450Y-42750D02*
X61700Y-42750D01*
X56500Y-46000D02*
X58900Y-46000D01*
X61000Y-36150D02*
X61000Y-38000D01*
X61250Y-38250D02*
X61700Y-38250D01*
X61000Y-38000D02*
X61250Y-38250D01*
X56500Y-42500D02*
X59700Y-42500D01*
X59950Y-42250D02*
X61700Y-42250D01*
X59700Y-42500D02*
X59950Y-42250D01*
X65300Y-41250D02*
X67750Y-41250D01*
X67750Y-41250D02*
X68500Y-40500D01*
X68500Y-40500D02*
X68500Y-38800D01*
X68500Y-38800D02*
X69300Y-38000D01*
X69300Y-38000D02*
X70500Y-38000D01*
X56500Y-41000D02*
X58000Y-41000D01*
X58750Y-41750D02*
X61700Y-41750D01*
X58000Y-41000D02*
X58750Y-41750D01*
X61700Y-41250D02*
X59350Y-41250D01*
X57600Y-39500D02*
X56500Y-39500D01*
X59350Y-41250D02*
X57600Y-39500D01*
X58200Y-36600D02*
X57600Y-36000D01*
X57600Y-36000D02*
X56500Y-36000D01*
X58200Y-39000D02*
X58200Y-36600D01*
X59950Y-40750D02*
X58200Y-39000D01*
X61700Y-40750D02*
X59950Y-40750D01*
X63000Y-38600D02*
X62350Y-39250D01*
X62500Y-34200D02*
X63000Y-34700D01*
X63000Y-34700D02*
X63000Y-38600D01*
X62350Y-39250D02*
X61700Y-39250D01*
X62500Y-29500D02*
X62500Y-34200D01*
X61700Y-38750D02*
X62050Y-38750D01*
X62050Y-38750D02*
X62500Y-38300D01*
X61000Y-33400D02*
X61000Y-29500D01*
X62500Y-34900D02*
X62200Y-34600D01*
X62500Y-38300D02*
X62500Y-34900D01*
X61000Y-33400D02*
X62200Y-34600D01*
X59200Y-34700D02*
X59200Y-38500D01*
X60450Y-39750D02*
X61700Y-39750D01*
X57500Y-33000D02*
X59200Y-34700D01*
X56500Y-33000D02*
X57500Y-33000D01*
X59200Y-38500D02*
X60450Y-39750D01*
X57700Y-34500D02*
X56500Y-34500D01*
X58700Y-35500D02*
X57700Y-34500D01*
X58700Y-38800D02*
X58700Y-35500D01*
X60150Y-40250D02*
X58700Y-38800D01*
X61700Y-40250D02*
X60150Y-40250D01*
X56500Y-38000D02*
X54000Y-38000D01*
X73000Y-36000D02*
X73000Y-30500D01*
X70500Y-36000D02*
X73000Y-36000D01*
X73000Y-48800D02*
X73000Y-42500D01*
X73000Y-49000D02*
X73000Y-48800D01*
X73000Y-30500D02*
X72000Y-29500D01*
X72000Y-29500D02*
X67000Y-29500D01*
X56500Y-31500D02*
X55000Y-31500D01*
X56500Y-44500D02*
X54000Y-44500D01*
X73000Y-42500D02*
X73000Y-36000D01*
X70500Y-42500D02*
X73000Y-42500D01*
X67000Y-32000D02*
X67000Y-29500D01*
X73000Y-49000D02*
X73000Y-48800D01*
X70500Y-49000D02*
X73000Y-49000D01*
X65300Y-33700D02*
X67000Y-32000D01*
X65300Y-37250D02*
X65300Y-33700D01*
X55000Y-31500D02*
X54000Y-32500D01*
X54000Y-44500D02*
X54000Y-49000D01*
X54000Y-38000D02*
X54000Y-44500D01*
X54000Y-32500D02*
X54000Y-38000D01*
X54000Y-49000D02*
X55000Y-50000D01*
X55000Y-50000D02*
X72000Y-50000D01*
X72000Y-50000D02*
X73000Y-49000D01*
G54D10*
G36*
X73305Y-30407D02*
X73297Y-30381D01*
X73296Y-30380D01*
X73296Y-30378D01*
X73280Y-30349D01*
X73269Y-30326D01*
X73267Y-30324D01*
X73267Y-30323D01*
X73257Y-30311D01*
X73229Y-30276D01*
X73227Y-30275D01*
X73226Y-30274D01*
X72232Y-29280D01*
X72229Y-29276D01*
X72226Y-29274D01*
X72181Y-29236D01*
X72179Y-29235D01*
X72178Y-29234D01*
X72126Y-29206D01*
X72123Y-29204D01*
X72067Y-29187D01*
X72064Y-29186D01*
X72022Y-29182D01*
X72004Y-29180D01*
X72001Y-29180D01*
X72000Y-29180D01*
X67691Y-29180D01*
X67691Y-28496D01*
X67683Y-28458D01*
X67668Y-28422D01*
X67647Y-28389D01*
X67619Y-28362D01*
X67587Y-28340D01*
X67551Y-28325D01*
X67512Y-28317D01*
X67473Y-28317D01*
X66488Y-28317D01*
X66450Y-28325D01*
X66414Y-28340D01*
X66381Y-28361D01*
X66354Y-28389D01*
X66332Y-28421D01*
X66317Y-28457D01*
X66309Y-28496D01*
X66309Y-28535D01*
X66309Y-30504D01*
X66317Y-30542D01*
X66332Y-30578D01*
X66353Y-30611D01*
X66381Y-30638D01*
X66413Y-30660D01*
X66449Y-30675D01*
X66488Y-30683D01*
X66527Y-30683D01*
X66680Y-30683D01*
X66680Y-31868D01*
X65080Y-33467D01*
X65076Y-33471D01*
X65036Y-33519D01*
X65035Y-33520D01*
X65034Y-33522D01*
X65004Y-33577D01*
X64986Y-33636D01*
X64982Y-33678D01*
X64980Y-33696D01*
X64980Y-33699D01*
X64980Y-33700D01*
X64980Y-36964D01*
X64956Y-36974D01*
X64923Y-36995D01*
X64896Y-37023D01*
X64874Y-37055D01*
X64859Y-37091D01*
X64851Y-37130D01*
X64851Y-37169D01*
X64851Y-37370D01*
X64859Y-37408D01*
X64874Y-37444D01*
X64895Y-37477D01*
X64918Y-37499D01*
X64896Y-37523D01*
X64874Y-37555D01*
X64859Y-37591D01*
X64851Y-37630D01*
X64851Y-37669D01*
X64851Y-37870D01*
X64859Y-37908D01*
X64874Y-37944D01*
X64895Y-37977D01*
X64918Y-37999D01*
X64896Y-38023D01*
X64874Y-38055D01*
X64859Y-38091D01*
X64851Y-38130D01*
X64851Y-38169D01*
X64851Y-38298D01*
X64820Y-38267D01*
X64820Y-33332D01*
X65719Y-32432D01*
X65724Y-32429D01*
X65726Y-32426D01*
X65764Y-32381D01*
X65764Y-32379D01*
X65766Y-32378D01*
X65776Y-32358D01*
X65794Y-32326D01*
X65794Y-32323D01*
X65795Y-32323D01*
X65813Y-32267D01*
X65814Y-32264D01*
X65815Y-32242D01*
X65820Y-32204D01*
X65820Y-32200D01*
X65820Y-30683D01*
X66012Y-30683D01*
X66050Y-30675D01*
X66086Y-30660D01*
X66119Y-30639D01*
X66146Y-30611D01*
X66168Y-30579D01*
X66183Y-30543D01*
X66191Y-30504D01*
X66191Y-30465D01*
X66191Y-28496D01*
X66183Y-28458D01*
X66168Y-28422D01*
X66147Y-28389D01*
X66119Y-28362D01*
X66087Y-28340D01*
X66051Y-28325D01*
X66012Y-28317D01*
X65973Y-28317D01*
X64988Y-28317D01*
X64950Y-28325D01*
X64914Y-28340D01*
X64881Y-28361D01*
X64854Y-28389D01*
X64832Y-28421D01*
X64817Y-28457D01*
X64809Y-28496D01*
X64809Y-28535D01*
X64809Y-30504D01*
X64817Y-30542D01*
X64832Y-30578D01*
X64853Y-30611D01*
X64881Y-30638D01*
X64913Y-30660D01*
X64949Y-30675D01*
X64988Y-30683D01*
X65027Y-30683D01*
X65180Y-30683D01*
X65180Y-32068D01*
X64320Y-32928D01*
X64320Y-30683D01*
X64512Y-30683D01*
X64550Y-30675D01*
X64586Y-30660D01*
X64619Y-30639D01*
X64646Y-30611D01*
X64668Y-30579D01*
X64683Y-30543D01*
X64691Y-30504D01*
X64691Y-30465D01*
X64691Y-28496D01*
X64683Y-28458D01*
X64668Y-28422D01*
X64647Y-28389D01*
X64619Y-28362D01*
X64587Y-28340D01*
X64551Y-28325D01*
X64512Y-28317D01*
X64473Y-28317D01*
X63488Y-28317D01*
X63450Y-28325D01*
X63414Y-28340D01*
X63381Y-28361D01*
X63354Y-28389D01*
X63332Y-28421D01*
X63317Y-28457D01*
X63309Y-28496D01*
X63309Y-28535D01*
X63309Y-30504D01*
X63317Y-30542D01*
X63332Y-30578D01*
X63353Y-30611D01*
X63381Y-30638D01*
X63413Y-30660D01*
X63449Y-30675D01*
X63488Y-30683D01*
X63527Y-30683D01*
X63680Y-30683D01*
X63680Y-38596D01*
X63680Y-38600D01*
X63681Y-38618D01*
X63685Y-38659D01*
X63686Y-38662D01*
X63703Y-38719D01*
X63704Y-38722D01*
X63719Y-38751D01*
X63731Y-38774D01*
X63732Y-38775D01*
X63733Y-38777D01*
X63755Y-38803D01*
X63771Y-38823D01*
X63773Y-38825D01*
X63774Y-38826D01*
X64417Y-39469D01*
X64421Y-39474D01*
X64424Y-39476D01*
X64469Y-39514D01*
X64470Y-39514D01*
X64472Y-39516D01*
X64492Y-39526D01*
X64524Y-39544D01*
X64526Y-39544D01*
X64527Y-39545D01*
X64583Y-39563D01*
X64586Y-39564D01*
X64607Y-39565D01*
X64646Y-39570D01*
X64650Y-39570D01*
X64867Y-39570D01*
X64859Y-39591D01*
X64851Y-39630D01*
X64851Y-39669D01*
X64851Y-39870D01*
X64859Y-39908D01*
X64874Y-39944D01*
X64895Y-39977D01*
X64918Y-39999D01*
X64896Y-40023D01*
X64874Y-40055D01*
X64859Y-40091D01*
X64851Y-40130D01*
X64851Y-40169D01*
X64851Y-40370D01*
X64859Y-40408D01*
X64874Y-40444D01*
X64895Y-40477D01*
X64918Y-40499D01*
X64896Y-40523D01*
X64874Y-40555D01*
X64859Y-40591D01*
X64851Y-40630D01*
X64851Y-40669D01*
X64851Y-40870D01*
X64859Y-40908D01*
X64874Y-40944D01*
X64895Y-40977D01*
X64918Y-40999D01*
X64896Y-41023D01*
X64874Y-41055D01*
X64859Y-41091D01*
X64851Y-41130D01*
X64851Y-41169D01*
X64851Y-41370D01*
X64859Y-41408D01*
X64874Y-41444D01*
X64895Y-41477D01*
X64918Y-41499D01*
X64896Y-41523D01*
X64874Y-41555D01*
X64859Y-41591D01*
X64851Y-41630D01*
X64851Y-41669D01*
X64851Y-41870D01*
X64859Y-41908D01*
X64874Y-41944D01*
X64895Y-41977D01*
X64918Y-41999D01*
X64896Y-42023D01*
X64874Y-42055D01*
X64859Y-42091D01*
X64851Y-42130D01*
X64851Y-42169D01*
X64851Y-42370D01*
X64859Y-42408D01*
X64874Y-42444D01*
X64895Y-42477D01*
X64918Y-42499D01*
X64896Y-42523D01*
X64874Y-42555D01*
X64859Y-42591D01*
X64851Y-42630D01*
X64851Y-42669D01*
X64851Y-42870D01*
X64859Y-42908D01*
X64874Y-42944D01*
X64895Y-42977D01*
X64918Y-42999D01*
X64896Y-43023D01*
X64874Y-43055D01*
X64859Y-43091D01*
X64851Y-43130D01*
X64851Y-43169D01*
X64851Y-43370D01*
X64859Y-43408D01*
X64874Y-43444D01*
X64895Y-43477D01*
X64918Y-43499D01*
X64896Y-43523D01*
X64874Y-43555D01*
X64859Y-43591D01*
X64851Y-43630D01*
X64851Y-43669D01*
X64851Y-43870D01*
X64859Y-43908D01*
X64874Y-43944D01*
X64895Y-43977D01*
X64923Y-44004D01*
X64955Y-44026D01*
X64980Y-44036D01*
X64980Y-46096D01*
X64980Y-46100D01*
X64981Y-46118D01*
X64985Y-46159D01*
X64986Y-46162D01*
X65003Y-46219D01*
X65004Y-46222D01*
X65019Y-46251D01*
X65031Y-46274D01*
X65032Y-46275D01*
X65033Y-46277D01*
X65055Y-46303D01*
X65071Y-46323D01*
X65073Y-46325D01*
X65074Y-46326D01*
X66470Y-47723D01*
X66471Y-47724D01*
X66473Y-47726D01*
X66489Y-47739D01*
X66519Y-47764D01*
X66521Y-47765D01*
X66574Y-47794D01*
X66576Y-47795D01*
X66592Y-47799D01*
X66633Y-47813D01*
X66636Y-47813D01*
X66696Y-47820D01*
X66700Y-47820D01*
X69317Y-47820D01*
X69317Y-48012D01*
X69325Y-48050D01*
X69340Y-48086D01*
X69361Y-48119D01*
X69389Y-48146D01*
X69421Y-48168D01*
X69457Y-48183D01*
X69496Y-48191D01*
X69535Y-48191D01*
X71504Y-48191D01*
X71542Y-48183D01*
X71578Y-48168D01*
X71611Y-48147D01*
X71638Y-48119D01*
X71660Y-48087D01*
X71675Y-48051D01*
X71683Y-48012D01*
X71683Y-47973D01*
X71683Y-46988D01*
X71675Y-46950D01*
X71660Y-46914D01*
X71639Y-46881D01*
X71611Y-46854D01*
X71579Y-46832D01*
X71543Y-46817D01*
X71504Y-46809D01*
X71465Y-46809D01*
X69496Y-46809D01*
X69458Y-46817D01*
X69422Y-46832D01*
X69389Y-46853D01*
X69362Y-46881D01*
X69340Y-46913D01*
X69325Y-46949D01*
X69317Y-46988D01*
X69317Y-47027D01*
X69317Y-47180D01*
X66832Y-47180D01*
X65620Y-45967D01*
X65620Y-44036D01*
X65644Y-44026D01*
X65677Y-44005D01*
X65704Y-43977D01*
X65726Y-43945D01*
X65741Y-43909D01*
X65749Y-43870D01*
X65749Y-43831D01*
X65749Y-43801D01*
X65780Y-43832D01*
X65780Y-44896D01*
X65780Y-44900D01*
X65781Y-44918D01*
X65785Y-44959D01*
X65786Y-44962D01*
X65803Y-45019D01*
X65804Y-45022D01*
X65819Y-45051D01*
X65831Y-45074D01*
X65832Y-45075D01*
X65833Y-45077D01*
X65855Y-45103D01*
X65871Y-45123D01*
X65873Y-45125D01*
X65874Y-45126D01*
X66970Y-46223D01*
X66971Y-46224D01*
X66973Y-46226D01*
X66989Y-46239D01*
X67019Y-46264D01*
X67021Y-46265D01*
X67074Y-46294D01*
X67076Y-46294D01*
X67077Y-46295D01*
X67133Y-46313D01*
X67136Y-46314D01*
X67157Y-46315D01*
X67196Y-46320D01*
X67200Y-46320D01*
X69317Y-46320D01*
X69317Y-46512D01*
X69325Y-46550D01*
X69340Y-46586D01*
X69361Y-46619D01*
X69389Y-46646D01*
X69421Y-46668D01*
X69457Y-46683D01*
X69496Y-46691D01*
X69535Y-46691D01*
X71504Y-46691D01*
X71542Y-46683D01*
X71578Y-46668D01*
X71611Y-46647D01*
X71638Y-46619D01*
X71660Y-46587D01*
X71675Y-46551D01*
X71683Y-46512D01*
X71683Y-46473D01*
X71683Y-45488D01*
X71675Y-45450D01*
X71660Y-45414D01*
X71639Y-45381D01*
X71611Y-45354D01*
X71579Y-45332D01*
X71543Y-45317D01*
X71504Y-45309D01*
X71465Y-45309D01*
X69496Y-45309D01*
X69458Y-45317D01*
X69422Y-45332D01*
X69389Y-45353D01*
X69362Y-45381D01*
X69340Y-45413D01*
X69325Y-45449D01*
X69317Y-45488D01*
X69317Y-45527D01*
X69317Y-45680D01*
X67332Y-45680D01*
X66420Y-44767D01*
X66420Y-43703D01*
X66420Y-43700D01*
X66414Y-43641D01*
X66414Y-43638D01*
X66398Y-43587D01*
X66397Y-43581D01*
X66396Y-43580D01*
X66396Y-43578D01*
X66368Y-43526D01*
X66367Y-43523D01*
X66346Y-43497D01*
X66329Y-43476D01*
X66326Y-43473D01*
X65922Y-43070D01*
X66317Y-43070D01*
X67970Y-44723D01*
X67971Y-44724D01*
X67973Y-44726D01*
X67989Y-44739D01*
X68019Y-44764D01*
X68021Y-44765D01*
X68074Y-44794D01*
X68076Y-44795D01*
X68092Y-44799D01*
X68133Y-44813D01*
X68136Y-44813D01*
X68196Y-44820D01*
X68200Y-44820D01*
X69317Y-44820D01*
X69317Y-45012D01*
X69325Y-45050D01*
X69340Y-45086D01*
X69361Y-45119D01*
X69389Y-45146D01*
X69421Y-45168D01*
X69457Y-45183D01*
X69496Y-45191D01*
X69535Y-45191D01*
X71504Y-45191D01*
X71542Y-45183D01*
X71578Y-45168D01*
X71611Y-45147D01*
X71638Y-45119D01*
X71660Y-45087D01*
X71675Y-45051D01*
X71683Y-45012D01*
X71683Y-44973D01*
X71683Y-43988D01*
X71675Y-43950D01*
X71660Y-43914D01*
X71639Y-43881D01*
X71611Y-43854D01*
X71579Y-43832D01*
X71543Y-43817D01*
X71504Y-43809D01*
X71465Y-43809D01*
X69496Y-43809D01*
X69458Y-43817D01*
X69422Y-43832D01*
X69389Y-43853D01*
X69362Y-43881D01*
X69340Y-43913D01*
X69325Y-43949D01*
X69317Y-43988D01*
X69317Y-44027D01*
X69317Y-44180D01*
X68332Y-44180D01*
X66722Y-42570D01*
X68546Y-42570D01*
X68550Y-42570D01*
X68568Y-42568D01*
X68609Y-42565D01*
X68612Y-42564D01*
X68669Y-42547D01*
X68669Y-42546D01*
X68672Y-42546D01*
X68701Y-42530D01*
X68724Y-42519D01*
X68725Y-42517D01*
X68727Y-42517D01*
X68753Y-42495D01*
X68773Y-42479D01*
X68775Y-42477D01*
X68776Y-42476D01*
X69223Y-42029D01*
X69224Y-42029D01*
X69224Y-42028D01*
X69226Y-42027D01*
X69242Y-42007D01*
X69264Y-41981D01*
X69264Y-41979D01*
X69266Y-41978D01*
X69276Y-41958D01*
X69294Y-41926D01*
X69294Y-41923D01*
X69295Y-41923D01*
X69313Y-41867D01*
X69314Y-41864D01*
X69315Y-41842D01*
X69320Y-41804D01*
X69320Y-41800D01*
X69320Y-41526D01*
X69325Y-41550D01*
X69340Y-41586D01*
X69361Y-41619D01*
X69389Y-41646D01*
X69421Y-41668D01*
X69457Y-41683D01*
X69496Y-41691D01*
X69535Y-41691D01*
X71504Y-41691D01*
X71542Y-41683D01*
X71578Y-41668D01*
X71611Y-41647D01*
X71638Y-41619D01*
X71660Y-41587D01*
X71675Y-41551D01*
X71683Y-41512D01*
X71683Y-41473D01*
X71683Y-40488D01*
X71675Y-40450D01*
X71660Y-40414D01*
X71639Y-40381D01*
X71611Y-40354D01*
X71579Y-40332D01*
X71543Y-40317D01*
X71504Y-40309D01*
X71465Y-40309D01*
X69496Y-40309D01*
X69458Y-40317D01*
X69422Y-40332D01*
X69389Y-40353D01*
X69362Y-40381D01*
X69340Y-40413D01*
X69325Y-40449D01*
X69320Y-40473D01*
X69320Y-40032D01*
X69321Y-40031D01*
X69325Y-40050D01*
X69340Y-40086D01*
X69361Y-40119D01*
X69389Y-40146D01*
X69421Y-40168D01*
X69457Y-40183D01*
X69496Y-40191D01*
X69535Y-40191D01*
X71504Y-40191D01*
X71542Y-40183D01*
X71578Y-40168D01*
X71611Y-40147D01*
X71638Y-40119D01*
X71660Y-40087D01*
X71675Y-40051D01*
X71683Y-40012D01*
X71683Y-39973D01*
X71683Y-38988D01*
X71675Y-38950D01*
X71660Y-38914D01*
X71639Y-38881D01*
X71611Y-38854D01*
X71579Y-38832D01*
X71543Y-38817D01*
X71504Y-38809D01*
X71465Y-38809D01*
X69496Y-38809D01*
X69458Y-38817D01*
X69422Y-38832D01*
X69389Y-38853D01*
X69362Y-38881D01*
X69340Y-38913D01*
X69325Y-38949D01*
X69317Y-38988D01*
X69317Y-39027D01*
X69317Y-39192D01*
X69287Y-39201D01*
X69281Y-39203D01*
X69280Y-39203D01*
X69278Y-39204D01*
X69223Y-39233D01*
X69197Y-39253D01*
X69176Y-39271D01*
X69173Y-39274D01*
X68820Y-39627D01*
X68820Y-38932D01*
X69317Y-38435D01*
X69317Y-38512D01*
X69325Y-38550D01*
X69340Y-38586D01*
X69361Y-38619D01*
X69389Y-38646D01*
X69421Y-38668D01*
X69457Y-38683D01*
X69496Y-38691D01*
X69535Y-38691D01*
X71504Y-38691D01*
X71542Y-38683D01*
X71578Y-38668D01*
X71611Y-38647D01*
X71638Y-38619D01*
X71660Y-38587D01*
X71675Y-38551D01*
X71683Y-38512D01*
X71683Y-38473D01*
X71683Y-37488D01*
X71675Y-37450D01*
X71660Y-37414D01*
X71639Y-37381D01*
X71611Y-37354D01*
X71579Y-37332D01*
X71543Y-37317D01*
X71504Y-37309D01*
X71465Y-37309D01*
X69496Y-37309D01*
X69458Y-37317D01*
X69422Y-37332D01*
X69389Y-37353D01*
X69362Y-37381D01*
X69340Y-37413D01*
X69325Y-37449D01*
X69317Y-37488D01*
X69317Y-37527D01*
X69317Y-37680D01*
X69303Y-37680D01*
X69300Y-37680D01*
X69238Y-37686D01*
X69187Y-37701D01*
X69181Y-37703D01*
X69180Y-37703D01*
X69178Y-37704D01*
X69123Y-37733D01*
X69097Y-37753D01*
X69076Y-37771D01*
X69073Y-37774D01*
X68320Y-38527D01*
X68320Y-35432D01*
X68932Y-34820D01*
X69317Y-34820D01*
X69317Y-35012D01*
X69325Y-35050D01*
X69340Y-35086D01*
X69361Y-35119D01*
X69389Y-35146D01*
X69421Y-35168D01*
X69457Y-35183D01*
X69496Y-35191D01*
X69535Y-35191D01*
X71504Y-35191D01*
X71542Y-35183D01*
X71578Y-35168D01*
X71611Y-35147D01*
X71638Y-35119D01*
X71660Y-35087D01*
X71675Y-35051D01*
X71683Y-35012D01*
X71683Y-34973D01*
X71683Y-33988D01*
X71675Y-33950D01*
X71660Y-33914D01*
X71639Y-33881D01*
X71611Y-33854D01*
X71579Y-33832D01*
X71543Y-33817D01*
X71504Y-33809D01*
X71465Y-33809D01*
X69496Y-33809D01*
X69458Y-33817D01*
X69422Y-33832D01*
X69389Y-33853D01*
X69362Y-33881D01*
X69340Y-33913D01*
X69325Y-33949D01*
X69317Y-33988D01*
X69317Y-34027D01*
X69317Y-34180D01*
X68803Y-34180D01*
X68800Y-34180D01*
X68738Y-34186D01*
X68687Y-34201D01*
X68681Y-34203D01*
X68680Y-34203D01*
X68678Y-34204D01*
X68623Y-34233D01*
X68597Y-34253D01*
X68576Y-34271D01*
X68573Y-34274D01*
X67820Y-35027D01*
X67820Y-34932D01*
X69317Y-33435D01*
X69317Y-33512D01*
X69325Y-33550D01*
X69340Y-33586D01*
X69361Y-33619D01*
X69389Y-33646D01*
X69421Y-33668D01*
X69457Y-33683D01*
X69496Y-33691D01*
X69535Y-33691D01*
X71504Y-33691D01*
X71542Y-33683D01*
X71578Y-33668D01*
X71611Y-33647D01*
X71638Y-33619D01*
X71660Y-33587D01*
X71675Y-33551D01*
X71683Y-33512D01*
X71683Y-33473D01*
X71683Y-32488D01*
X71675Y-32450D01*
X71660Y-32414D01*
X71639Y-32381D01*
X71611Y-32354D01*
X71579Y-32332D01*
X71543Y-32317D01*
X71504Y-32309D01*
X71465Y-32309D01*
X69496Y-32309D01*
X69458Y-32317D01*
X69422Y-32332D01*
X69389Y-32353D01*
X69362Y-32381D01*
X69340Y-32413D01*
X69325Y-32449D01*
X69317Y-32488D01*
X69317Y-32527D01*
X69317Y-32680D01*
X69303Y-32680D01*
X69300Y-32680D01*
X69238Y-32686D01*
X69187Y-32701D01*
X69181Y-32703D01*
X69180Y-32703D01*
X69178Y-32704D01*
X69123Y-32733D01*
X69097Y-32753D01*
X69076Y-32771D01*
X69073Y-32774D01*
X67320Y-34527D01*
X67320Y-33732D01*
X69232Y-31820D01*
X69317Y-31820D01*
X69317Y-32012D01*
X69325Y-32050D01*
X69340Y-32086D01*
X69361Y-32119D01*
X69389Y-32146D01*
X69421Y-32168D01*
X69457Y-32183D01*
X69496Y-32191D01*
X69535Y-32191D01*
X71504Y-32191D01*
X71542Y-32183D01*
X71578Y-32168D01*
X71611Y-32147D01*
X71638Y-32119D01*
X71660Y-32087D01*
X71675Y-32051D01*
X71683Y-32012D01*
X71683Y-31973D01*
X71683Y-30988D01*
X71675Y-30950D01*
X71660Y-30914D01*
X71639Y-30881D01*
X71611Y-30854D01*
X71579Y-30832D01*
X71543Y-30817D01*
X71504Y-30809D01*
X71465Y-30809D01*
X69496Y-30809D01*
X69458Y-30817D01*
X69422Y-30832D01*
X69389Y-30853D01*
X69362Y-30881D01*
X69340Y-30913D01*
X69325Y-30949D01*
X69317Y-30988D01*
X69317Y-31027D01*
X69317Y-31180D01*
X69103Y-31180D01*
X69100Y-31180D01*
X69038Y-31186D01*
X68978Y-31204D01*
X68923Y-31233D01*
X68907Y-31246D01*
X68876Y-31271D01*
X68873Y-31274D01*
X66780Y-33367D01*
X66776Y-33371D01*
X66736Y-33419D01*
X66735Y-33420D01*
X66734Y-33422D01*
X66704Y-33477D01*
X66686Y-33536D01*
X66682Y-33578D01*
X66680Y-33596D01*
X66680Y-33599D01*
X66680Y-33600D01*
X66680Y-38968D01*
X66218Y-39430D01*
X65732Y-39430D01*
X65741Y-39409D01*
X65749Y-39370D01*
X65749Y-39331D01*
X65749Y-39130D01*
X65741Y-39092D01*
X65726Y-39056D01*
X65705Y-39023D01*
X65681Y-39000D01*
X65704Y-38977D01*
X65726Y-38945D01*
X65741Y-38909D01*
X65749Y-38870D01*
X65749Y-38831D01*
X65749Y-38630D01*
X65741Y-38592D01*
X65726Y-38556D01*
X65705Y-38523D01*
X65681Y-38500D01*
X65704Y-38477D01*
X65726Y-38445D01*
X65741Y-38409D01*
X65749Y-38370D01*
X65749Y-38331D01*
X65749Y-38130D01*
X65741Y-38092D01*
X65726Y-38056D01*
X65705Y-38023D01*
X65681Y-38000D01*
X65704Y-37977D01*
X65726Y-37945D01*
X65741Y-37909D01*
X65749Y-37870D01*
X65749Y-37831D01*
X65749Y-37630D01*
X65741Y-37592D01*
X65726Y-37556D01*
X65705Y-37523D01*
X65681Y-37500D01*
X65704Y-37477D01*
X65726Y-37445D01*
X65741Y-37409D01*
X65749Y-37370D01*
X65749Y-37331D01*
X65749Y-37130D01*
X65741Y-37092D01*
X65726Y-37056D01*
X65705Y-37023D01*
X65677Y-36996D01*
X65645Y-36974D01*
X65620Y-36963D01*
X65620Y-33832D01*
X67219Y-32232D01*
X67224Y-32229D01*
X67226Y-32226D01*
X67264Y-32181D01*
X67264Y-32179D01*
X67266Y-32178D01*
X67276Y-32158D01*
X67294Y-32126D01*
X67294Y-32123D01*
X67295Y-32123D01*
X67313Y-32067D01*
X67314Y-32064D01*
X67315Y-32042D01*
X67320Y-32004D01*
X67320Y-32000D01*
X67320Y-30683D01*
X67512Y-30683D01*
X67550Y-30675D01*
X67586Y-30660D01*
X67619Y-30639D01*
X67646Y-30611D01*
X67668Y-30579D01*
X67683Y-30543D01*
X67691Y-30504D01*
X67691Y-30465D01*
X67691Y-29820D01*
X71868Y-29820D01*
X72680Y-30632D01*
X72680Y-35680D01*
X71683Y-35680D01*
X71683Y-35488D01*
X71675Y-35450D01*
X71660Y-35414D01*
X71639Y-35381D01*
X71611Y-35354D01*
X71579Y-35332D01*
X71543Y-35317D01*
X71504Y-35309D01*
X71465Y-35309D01*
X69496Y-35309D01*
X69458Y-35317D01*
X69422Y-35332D01*
X69389Y-35353D01*
X69362Y-35381D01*
X69340Y-35413D01*
X69325Y-35449D01*
X69317Y-35488D01*
X69317Y-35527D01*
X69317Y-36512D01*
X69325Y-36550D01*
X69340Y-36586D01*
X69361Y-36619D01*
X69389Y-36646D01*
X69421Y-36668D01*
X69457Y-36683D01*
X69496Y-36691D01*
X69535Y-36691D01*
X71504Y-36691D01*
X71542Y-36683D01*
X71578Y-36668D01*
X71611Y-36647D01*
X71638Y-36619D01*
X71660Y-36587D01*
X71675Y-36551D01*
X71683Y-36512D01*
X71683Y-36473D01*
X71683Y-36320D01*
X72680Y-36320D01*
X72680Y-42180D01*
X71683Y-42180D01*
X71683Y-41988D01*
X71675Y-41950D01*
X71660Y-41914D01*
X71639Y-41881D01*
X71611Y-41854D01*
X71579Y-41832D01*
X71543Y-41817D01*
X71504Y-41809D01*
X71465Y-41809D01*
X69496Y-41809D01*
X69458Y-41817D01*
X69422Y-41832D01*
X69389Y-41853D01*
X69362Y-41881D01*
X69340Y-41913D01*
X69325Y-41949D01*
X69317Y-41988D01*
X69317Y-42027D01*
X69317Y-43012D01*
X69325Y-43050D01*
X69340Y-43086D01*
X69361Y-43119D01*
X69389Y-43146D01*
X69421Y-43168D01*
X69457Y-43183D01*
X69496Y-43191D01*
X69535Y-43191D01*
X71504Y-43191D01*
X71542Y-43183D01*
X71578Y-43168D01*
X71611Y-43147D01*
X71638Y-43119D01*
X71660Y-43087D01*
X71675Y-43051D01*
X71683Y-43012D01*
X71683Y-42973D01*
X71683Y-42820D01*
X72680Y-42820D01*
X72680Y-48680D01*
X71683Y-48680D01*
X71683Y-48488D01*
X71675Y-48450D01*
X71660Y-48414D01*
X71639Y-48381D01*
X71611Y-48354D01*
X71579Y-48332D01*
X71543Y-48317D01*
X71504Y-48309D01*
X71465Y-48309D01*
X69496Y-48309D01*
X69458Y-48317D01*
X69422Y-48332D01*
X69389Y-48353D01*
X69362Y-48381D01*
X69340Y-48413D01*
X69325Y-48449D01*
X69317Y-48488D01*
X69317Y-48527D01*
X69317Y-49512D01*
X69325Y-49550D01*
X69340Y-49586D01*
X69361Y-49619D01*
X69389Y-49646D01*
X69421Y-49668D01*
X69449Y-49680D01*
X57549Y-49680D01*
X57578Y-49668D01*
X57611Y-49647D01*
X57638Y-49619D01*
X57660Y-49587D01*
X57675Y-49551D01*
X57683Y-49512D01*
X57683Y-49473D01*
X57683Y-49320D01*
X59796Y-49320D01*
X59800Y-49320D01*
X59818Y-49318D01*
X59859Y-49315D01*
X59862Y-49314D01*
X59919Y-49297D01*
X59919Y-49296D01*
X59922Y-49296D01*
X59951Y-49280D01*
X59974Y-49269D01*
X59975Y-49267D01*
X59977Y-49267D01*
X60003Y-49245D01*
X60023Y-49229D01*
X60025Y-49227D01*
X60026Y-49226D01*
X61919Y-47332D01*
X61924Y-47329D01*
X61926Y-47326D01*
X61964Y-47281D01*
X61964Y-47279D01*
X61966Y-47278D01*
X61994Y-47226D01*
X61996Y-47223D01*
X62013Y-47167D01*
X62014Y-47164D01*
X62018Y-47122D01*
X62020Y-47104D01*
X62020Y-47101D01*
X62020Y-47100D01*
X62020Y-44036D01*
X62044Y-44026D01*
X62077Y-44005D01*
X62104Y-43977D01*
X62126Y-43945D01*
X62141Y-43909D01*
X62149Y-43870D01*
X62149Y-43831D01*
X62149Y-43630D01*
X62141Y-43592D01*
X62126Y-43556D01*
X62105Y-43523D01*
X62081Y-43500D01*
X62104Y-43477D01*
X62126Y-43445D01*
X62141Y-43409D01*
X62149Y-43370D01*
X62149Y-43331D01*
X62149Y-43130D01*
X62141Y-43092D01*
X62126Y-43056D01*
X62105Y-43023D01*
X62081Y-43000D01*
X62104Y-42977D01*
X62126Y-42945D01*
X62141Y-42909D01*
X62149Y-42870D01*
X62149Y-42831D01*
X62149Y-42630D01*
X62141Y-42592D01*
X62126Y-42556D01*
X62105Y-42523D01*
X62081Y-42500D01*
X62104Y-42477D01*
X62126Y-42445D01*
X62141Y-42409D01*
X62149Y-42370D01*
X62149Y-42331D01*
X62149Y-42130D01*
X62141Y-42092D01*
X62126Y-42056D01*
X62105Y-42023D01*
X62081Y-42000D01*
X62104Y-41977D01*
X62126Y-41945D01*
X62141Y-41909D01*
X62149Y-41870D01*
X62149Y-41831D01*
X62149Y-41630D01*
X62141Y-41592D01*
X62126Y-41556D01*
X62105Y-41523D01*
X62081Y-41500D01*
X62104Y-41477D01*
X62126Y-41445D01*
X62141Y-41409D01*
X62149Y-41370D01*
X62149Y-41331D01*
X62149Y-41130D01*
X62141Y-41092D01*
X62126Y-41056D01*
X62105Y-41023D01*
X62081Y-41000D01*
X62104Y-40977D01*
X62126Y-40945D01*
X62141Y-40909D01*
X62149Y-40870D01*
X62149Y-40831D01*
X62149Y-40630D01*
X62141Y-40592D01*
X62126Y-40556D01*
X62105Y-40523D01*
X62081Y-40500D01*
X62104Y-40477D01*
X62126Y-40445D01*
X62141Y-40409D01*
X62149Y-40370D01*
X62149Y-40331D01*
X62149Y-40130D01*
X62141Y-40092D01*
X62126Y-40056D01*
X62105Y-40023D01*
X62081Y-40000D01*
X62104Y-39977D01*
X62126Y-39945D01*
X62141Y-39909D01*
X62149Y-39870D01*
X62149Y-39831D01*
X62149Y-39630D01*
X62141Y-39592D01*
X62131Y-39570D01*
X62346Y-39570D01*
X62350Y-39570D01*
X62368Y-39568D01*
X62409Y-39565D01*
X62412Y-39564D01*
X62469Y-39547D01*
X62469Y-39546D01*
X62472Y-39546D01*
X62501Y-39530D01*
X62524Y-39519D01*
X62525Y-39517D01*
X62527Y-39517D01*
X62553Y-39495D01*
X62573Y-39479D01*
X62575Y-39477D01*
X62576Y-39476D01*
X63219Y-38832D01*
X63224Y-38829D01*
X63226Y-38826D01*
X63264Y-38781D01*
X63264Y-38779D01*
X63266Y-38778D01*
X63276Y-38758D01*
X63294Y-38726D01*
X63294Y-38723D01*
X63295Y-38723D01*
X63313Y-38667D01*
X63314Y-38664D01*
X63315Y-38642D01*
X63320Y-38604D01*
X63320Y-38600D01*
X63320Y-34703D01*
X63320Y-34700D01*
X63318Y-34685D01*
X63315Y-34641D01*
X63314Y-34638D01*
X63297Y-34581D01*
X63296Y-34580D01*
X63296Y-34578D01*
X63280Y-34549D01*
X63269Y-34526D01*
X63267Y-34524D01*
X63267Y-34523D01*
X63257Y-34511D01*
X63229Y-34476D01*
X63227Y-34475D01*
X63226Y-34474D01*
X62820Y-34068D01*
X62820Y-30683D01*
X63012Y-30683D01*
X63050Y-30675D01*
X63086Y-30660D01*
X63119Y-30639D01*
X63146Y-30611D01*
X63168Y-30579D01*
X63183Y-30543D01*
X63191Y-30504D01*
X63191Y-30465D01*
X63191Y-28496D01*
X63183Y-28458D01*
X63168Y-28422D01*
X63147Y-28389D01*
X63119Y-28362D01*
X63087Y-28340D01*
X63051Y-28325D01*
X63012Y-28317D01*
X62973Y-28317D01*
X61988Y-28317D01*
X61950Y-28325D01*
X61914Y-28340D01*
X61881Y-28361D01*
X61854Y-28389D01*
X61832Y-28421D01*
X61817Y-28457D01*
X61809Y-28496D01*
X61809Y-28535D01*
X61809Y-30504D01*
X61817Y-30542D01*
X61832Y-30578D01*
X61853Y-30611D01*
X61881Y-30638D01*
X61913Y-30660D01*
X61949Y-30675D01*
X61988Y-30683D01*
X62027Y-30683D01*
X62180Y-30683D01*
X62180Y-34128D01*
X61320Y-33268D01*
X61320Y-30683D01*
X61512Y-30683D01*
X61550Y-30675D01*
X61586Y-30660D01*
X61619Y-30639D01*
X61646Y-30611D01*
X61668Y-30579D01*
X61683Y-30543D01*
X61691Y-30504D01*
X61691Y-30465D01*
X61691Y-28496D01*
X61683Y-28458D01*
X61668Y-28422D01*
X61647Y-28389D01*
X61619Y-28362D01*
X61587Y-28340D01*
X61551Y-28325D01*
X61512Y-28317D01*
X61473Y-28317D01*
X60488Y-28317D01*
X60450Y-28325D01*
X60414Y-28340D01*
X60381Y-28361D01*
X60354Y-28389D01*
X60332Y-28421D01*
X60317Y-28457D01*
X60309Y-28496D01*
X60309Y-28535D01*
X60309Y-30504D01*
X60317Y-30542D01*
X60332Y-30578D01*
X60353Y-30611D01*
X60381Y-30638D01*
X60413Y-30660D01*
X60449Y-30675D01*
X60488Y-30683D01*
X60527Y-30683D01*
X60680Y-30683D01*
X60680Y-33396D01*
X60680Y-33400D01*
X60681Y-33418D01*
X60685Y-33459D01*
X60686Y-33462D01*
X60703Y-33519D01*
X60704Y-33522D01*
X60719Y-33551D01*
X60731Y-33574D01*
X60732Y-33575D01*
X60733Y-33577D01*
X60755Y-33603D01*
X60771Y-33623D01*
X60773Y-33625D01*
X60774Y-33626D01*
X61971Y-34823D01*
X61974Y-34826D01*
X62180Y-35032D01*
X62180Y-38167D01*
X62149Y-38198D01*
X62149Y-38130D01*
X62141Y-38092D01*
X62126Y-38056D01*
X62105Y-38023D01*
X62081Y-38000D01*
X62104Y-37977D01*
X62126Y-37945D01*
X62141Y-37909D01*
X62149Y-37870D01*
X62149Y-37831D01*
X62149Y-37630D01*
X62141Y-37592D01*
X62126Y-37556D01*
X62105Y-37523D01*
X62077Y-37496D01*
X62045Y-37474D01*
X62009Y-37459D01*
X62001Y-37457D01*
X62007Y-37455D01*
X62026Y-37442D01*
X62042Y-37426D01*
X62055Y-37406D01*
X62064Y-37385D01*
X62069Y-37362D01*
X62070Y-37290D01*
X62070Y-37210D01*
X62069Y-37138D01*
X62064Y-37115D01*
X62055Y-37094D01*
X62042Y-37074D01*
X62026Y-37058D01*
X62007Y-37045D01*
X61985Y-37036D01*
X61962Y-37031D01*
X61939Y-37031D01*
X61740Y-37030D01*
X61710Y-37060D01*
X61710Y-37240D01*
X62040Y-37240D01*
X62070Y-37210D01*
X62070Y-37290D01*
X62040Y-37260D01*
X61750Y-37260D01*
X61710Y-37260D01*
X61690Y-37260D01*
X61690Y-37240D01*
X61690Y-37060D01*
X61660Y-37030D01*
X61461Y-37031D01*
X61438Y-37031D01*
X61415Y-37036D01*
X61393Y-37045D01*
X61374Y-37058D01*
X61358Y-37074D01*
X61345Y-37094D01*
X61336Y-37115D01*
X61331Y-37138D01*
X61330Y-37210D01*
X61360Y-37240D01*
X61690Y-37240D01*
X61690Y-37260D01*
X61650Y-37260D01*
X61360Y-37260D01*
X61330Y-37290D01*
X61331Y-37362D01*
X61336Y-37385D01*
X61345Y-37406D01*
X61358Y-37426D01*
X61374Y-37442D01*
X61393Y-37455D01*
X61399Y-37457D01*
X61392Y-37459D01*
X61356Y-37474D01*
X61323Y-37495D01*
X61320Y-37498D01*
X61320Y-36649D01*
X61420Y-36649D01*
X61458Y-36641D01*
X61494Y-36626D01*
X61527Y-36605D01*
X61554Y-36577D01*
X61576Y-36545D01*
X61591Y-36509D01*
X61599Y-36470D01*
X61599Y-36431D01*
X61599Y-35830D01*
X61591Y-35792D01*
X61576Y-35756D01*
X61555Y-35723D01*
X61527Y-35696D01*
X61520Y-35691D01*
X61520Y-34890D01*
X61520Y-34810D01*
X61519Y-34538D01*
X61514Y-34515D01*
X61505Y-34494D01*
X61492Y-34474D01*
X61476Y-34458D01*
X61457Y-34445D01*
X61435Y-34436D01*
X61412Y-34431D01*
X61389Y-34431D01*
X61040Y-34430D01*
X61010Y-34460D01*
X61010Y-34840D01*
X61490Y-34840D01*
X61520Y-34810D01*
X61520Y-34890D01*
X61490Y-34860D01*
X61010Y-34860D01*
X61010Y-35240D01*
X61040Y-35270D01*
X61389Y-35269D01*
X61412Y-35269D01*
X61435Y-35264D01*
X61457Y-35255D01*
X61476Y-35242D01*
X61492Y-35226D01*
X61505Y-35206D01*
X61514Y-35185D01*
X61519Y-35162D01*
X61520Y-34890D01*
X61520Y-35691D01*
X61495Y-35674D01*
X61459Y-35659D01*
X61420Y-35651D01*
X61381Y-35651D01*
X60990Y-35651D01*
X60990Y-35240D01*
X60990Y-34860D01*
X60990Y-34840D01*
X60990Y-34460D01*
X60960Y-34430D01*
X60611Y-34431D01*
X60588Y-34431D01*
X60565Y-34436D01*
X60543Y-34445D01*
X60524Y-34458D01*
X60508Y-34474D01*
X60495Y-34494D01*
X60486Y-34515D01*
X60481Y-34538D01*
X60480Y-34810D01*
X60510Y-34840D01*
X60990Y-34840D01*
X60990Y-34860D01*
X60510Y-34860D01*
X60480Y-34890D01*
X60481Y-35162D01*
X60486Y-35185D01*
X60495Y-35206D01*
X60508Y-35226D01*
X60524Y-35242D01*
X60543Y-35255D01*
X60565Y-35264D01*
X60588Y-35269D01*
X60611Y-35269D01*
X60960Y-35270D01*
X60990Y-35240D01*
X60990Y-35651D01*
X60580Y-35651D01*
X60542Y-35659D01*
X60506Y-35674D01*
X60473Y-35695D01*
X60446Y-35723D01*
X60424Y-35755D01*
X60409Y-35791D01*
X60401Y-35830D01*
X60401Y-35869D01*
X60401Y-36470D01*
X60409Y-36508D01*
X60424Y-36544D01*
X60445Y-36577D01*
X60473Y-36604D01*
X60505Y-36626D01*
X60541Y-36641D01*
X60580Y-36649D01*
X60619Y-36649D01*
X60680Y-36649D01*
X60680Y-37996D01*
X60680Y-38000D01*
X60681Y-38018D01*
X60685Y-38059D01*
X60686Y-38062D01*
X60703Y-38119D01*
X60704Y-38122D01*
X60719Y-38151D01*
X60731Y-38174D01*
X60732Y-38175D01*
X60733Y-38177D01*
X60755Y-38203D01*
X60771Y-38223D01*
X60773Y-38225D01*
X60774Y-38226D01*
X61020Y-38473D01*
X61021Y-38474D01*
X61023Y-38476D01*
X61039Y-38489D01*
X61069Y-38514D01*
X61071Y-38515D01*
X61124Y-38544D01*
X61126Y-38544D01*
X61127Y-38545D01*
X61183Y-38563D01*
X61186Y-38564D01*
X61207Y-38565D01*
X61246Y-38570D01*
X61250Y-38570D01*
X61267Y-38570D01*
X61259Y-38591D01*
X61251Y-38630D01*
X61251Y-38669D01*
X61251Y-38870D01*
X61259Y-38908D01*
X61274Y-38944D01*
X61295Y-38977D01*
X61318Y-38999D01*
X61296Y-39023D01*
X61274Y-39055D01*
X61259Y-39091D01*
X61251Y-39130D01*
X61251Y-39169D01*
X61251Y-39370D01*
X61259Y-39408D01*
X61268Y-39430D01*
X60582Y-39430D01*
X60112Y-38959D01*
X60112Y-29540D01*
X60112Y-29460D01*
X60111Y-28504D01*
X60106Y-28481D01*
X60097Y-28460D01*
X60084Y-28440D01*
X60068Y-28424D01*
X60049Y-28411D01*
X60027Y-28402D01*
X60004Y-28397D01*
X59981Y-28397D01*
X59540Y-28396D01*
X59510Y-28426D01*
X59510Y-29490D01*
X60082Y-29490D01*
X60112Y-29460D01*
X60112Y-29540D01*
X60082Y-29510D01*
X59510Y-29510D01*
X59510Y-30574D01*
X59540Y-30604D01*
X59981Y-30603D01*
X60004Y-30603D01*
X60027Y-30598D01*
X60049Y-30589D01*
X60068Y-30576D01*
X60084Y-30560D01*
X60097Y-30540D01*
X60106Y-30519D01*
X60111Y-30496D01*
X60112Y-29540D01*
X60112Y-38959D01*
X59520Y-38367D01*
X59520Y-34703D01*
X59520Y-34700D01*
X59518Y-34685D01*
X59515Y-34641D01*
X59514Y-34638D01*
X59497Y-34581D01*
X59496Y-34580D01*
X59496Y-34578D01*
X59490Y-34567D01*
X59490Y-30574D01*
X59490Y-29510D01*
X59490Y-29490D01*
X59490Y-28426D01*
X59460Y-28396D01*
X59019Y-28397D01*
X58996Y-28397D01*
X58973Y-28402D01*
X58951Y-28411D01*
X58932Y-28424D01*
X58916Y-28440D01*
X58903Y-28460D01*
X58894Y-28481D01*
X58889Y-28504D01*
X58888Y-29460D01*
X58918Y-29490D01*
X59490Y-29490D01*
X59490Y-29510D01*
X58918Y-29510D01*
X58888Y-29540D01*
X58889Y-30496D01*
X58894Y-30519D01*
X58903Y-30540D01*
X58916Y-30560D01*
X58932Y-30576D01*
X58951Y-30589D01*
X58973Y-30598D01*
X58996Y-30603D01*
X59019Y-30603D01*
X59460Y-30604D01*
X59490Y-30574D01*
X59490Y-34567D01*
X59480Y-34549D01*
X59469Y-34526D01*
X59467Y-34524D01*
X59467Y-34523D01*
X59457Y-34511D01*
X59429Y-34476D01*
X59427Y-34475D01*
X59426Y-34474D01*
X57732Y-32780D01*
X57729Y-32776D01*
X57726Y-32774D01*
X57683Y-32738D01*
X57683Y-32737D01*
X57683Y-32488D01*
X57675Y-32450D01*
X57660Y-32414D01*
X57639Y-32381D01*
X57611Y-32354D01*
X57579Y-32332D01*
X57543Y-32317D01*
X57504Y-32309D01*
X57465Y-32309D01*
X55496Y-32309D01*
X55458Y-32317D01*
X55422Y-32332D01*
X55389Y-32353D01*
X55362Y-32381D01*
X55340Y-32413D01*
X55325Y-32449D01*
X55317Y-32488D01*
X55317Y-32527D01*
X55317Y-33512D01*
X55325Y-33550D01*
X55340Y-33586D01*
X55361Y-33619D01*
X55389Y-33646D01*
X55421Y-33668D01*
X55457Y-33683D01*
X55496Y-33691D01*
X55535Y-33691D01*
X57504Y-33691D01*
X57542Y-33683D01*
X57578Y-33668D01*
X57611Y-33647D01*
X57638Y-33619D01*
X57649Y-33601D01*
X58880Y-34832D01*
X58880Y-35228D01*
X57932Y-34280D01*
X57929Y-34276D01*
X57926Y-34274D01*
X57881Y-34236D01*
X57879Y-34235D01*
X57878Y-34234D01*
X57826Y-34206D01*
X57823Y-34204D01*
X57767Y-34187D01*
X57764Y-34186D01*
X57722Y-34182D01*
X57704Y-34180D01*
X57701Y-34180D01*
X57700Y-34180D01*
X57683Y-34180D01*
X57683Y-33988D01*
X57675Y-33950D01*
X57660Y-33914D01*
X57639Y-33881D01*
X57611Y-33854D01*
X57579Y-33832D01*
X57543Y-33817D01*
X57504Y-33809D01*
X57465Y-33809D01*
X55496Y-33809D01*
X55458Y-33817D01*
X55422Y-33832D01*
X55389Y-33853D01*
X55362Y-33881D01*
X55340Y-33913D01*
X55325Y-33949D01*
X55317Y-33988D01*
X55317Y-34027D01*
X55317Y-35012D01*
X55325Y-35050D01*
X55340Y-35086D01*
X55361Y-35119D01*
X55389Y-35146D01*
X55421Y-35168D01*
X55457Y-35183D01*
X55496Y-35191D01*
X55535Y-35191D01*
X57504Y-35191D01*
X57542Y-35183D01*
X57578Y-35168D01*
X57611Y-35147D01*
X57638Y-35119D01*
X57660Y-35087D01*
X57675Y-35051D01*
X57683Y-35012D01*
X57683Y-34973D01*
X57683Y-34935D01*
X58380Y-35632D01*
X58380Y-36327D01*
X57832Y-35780D01*
X57829Y-35776D01*
X57826Y-35774D01*
X57781Y-35736D01*
X57779Y-35735D01*
X57778Y-35734D01*
X57726Y-35706D01*
X57723Y-35704D01*
X57683Y-35692D01*
X57683Y-35691D01*
X57683Y-35488D01*
X57675Y-35450D01*
X57660Y-35414D01*
X57639Y-35381D01*
X57611Y-35354D01*
X57579Y-35332D01*
X57543Y-35317D01*
X57504Y-35309D01*
X57465Y-35309D01*
X55496Y-35309D01*
X55458Y-35317D01*
X55422Y-35332D01*
X55389Y-35353D01*
X55362Y-35381D01*
X55340Y-35413D01*
X55325Y-35449D01*
X55317Y-35488D01*
X55317Y-35527D01*
X55317Y-36512D01*
X55325Y-36550D01*
X55340Y-36586D01*
X55361Y-36619D01*
X55389Y-36646D01*
X55421Y-36668D01*
X55457Y-36683D01*
X55496Y-36691D01*
X55535Y-36691D01*
X57504Y-36691D01*
X57542Y-36683D01*
X57578Y-36668D01*
X57611Y-36647D01*
X57638Y-36619D01*
X57660Y-36587D01*
X57675Y-36551D01*
X57678Y-36531D01*
X57880Y-36732D01*
X57880Y-38996D01*
X57880Y-39000D01*
X57881Y-39018D01*
X57885Y-39059D01*
X57886Y-39062D01*
X57903Y-39119D01*
X57904Y-39122D01*
X57919Y-39151D01*
X57931Y-39174D01*
X57932Y-39175D01*
X57933Y-39177D01*
X57955Y-39203D01*
X57971Y-39223D01*
X57973Y-39225D01*
X57974Y-39226D01*
X59677Y-40930D01*
X59482Y-40930D01*
X57832Y-39280D01*
X57829Y-39276D01*
X57826Y-39274D01*
X57781Y-39236D01*
X57779Y-39235D01*
X57778Y-39234D01*
X57726Y-39206D01*
X57723Y-39204D01*
X57683Y-39192D01*
X57683Y-39191D01*
X57683Y-38988D01*
X57675Y-38950D01*
X57660Y-38914D01*
X57639Y-38881D01*
X57611Y-38854D01*
X57579Y-38832D01*
X57543Y-38817D01*
X57504Y-38809D01*
X57465Y-38809D01*
X55496Y-38809D01*
X55458Y-38817D01*
X55422Y-38832D01*
X55389Y-38853D01*
X55362Y-38881D01*
X55340Y-38913D01*
X55325Y-38949D01*
X55317Y-38988D01*
X55317Y-39027D01*
X55317Y-40012D01*
X55325Y-40050D01*
X55340Y-40086D01*
X55361Y-40119D01*
X55389Y-40146D01*
X55421Y-40168D01*
X55457Y-40183D01*
X55496Y-40191D01*
X55535Y-40191D01*
X57504Y-40191D01*
X57542Y-40183D01*
X57578Y-40168D01*
X57611Y-40147D01*
X57638Y-40119D01*
X57660Y-40087D01*
X57675Y-40051D01*
X57679Y-40031D01*
X59077Y-41430D01*
X58882Y-41430D01*
X58232Y-40780D01*
X58229Y-40776D01*
X58226Y-40774D01*
X58181Y-40736D01*
X58179Y-40735D01*
X58178Y-40734D01*
X58126Y-40706D01*
X58123Y-40704D01*
X58067Y-40687D01*
X58064Y-40686D01*
X58022Y-40682D01*
X58004Y-40680D01*
X58001Y-40680D01*
X58000Y-40680D01*
X57683Y-40680D01*
X57683Y-40488D01*
X57675Y-40450D01*
X57660Y-40414D01*
X57639Y-40381D01*
X57611Y-40354D01*
X57579Y-40332D01*
X57543Y-40317D01*
X57504Y-40309D01*
X57465Y-40309D01*
X55496Y-40309D01*
X55458Y-40317D01*
X55422Y-40332D01*
X55389Y-40353D01*
X55362Y-40381D01*
X55340Y-40413D01*
X55325Y-40449D01*
X55317Y-40488D01*
X55317Y-40527D01*
X55317Y-41512D01*
X55325Y-41550D01*
X55340Y-41586D01*
X55361Y-41619D01*
X55389Y-41646D01*
X55421Y-41668D01*
X55457Y-41683D01*
X55496Y-41691D01*
X55535Y-41691D01*
X57504Y-41691D01*
X57542Y-41683D01*
X57578Y-41668D01*
X57611Y-41647D01*
X57638Y-41619D01*
X57660Y-41587D01*
X57675Y-41551D01*
X57683Y-41512D01*
X57683Y-41473D01*
X57683Y-41320D01*
X57867Y-41320D01*
X58520Y-41973D01*
X58521Y-41974D01*
X58523Y-41976D01*
X58539Y-41989D01*
X58569Y-42014D01*
X58571Y-42015D01*
X58624Y-42044D01*
X58626Y-42045D01*
X58642Y-42049D01*
X58683Y-42063D01*
X58686Y-42063D01*
X58746Y-42070D01*
X58750Y-42070D01*
X59677Y-42070D01*
X59567Y-42180D01*
X57683Y-42180D01*
X57683Y-41988D01*
X57675Y-41950D01*
X57660Y-41914D01*
X57639Y-41881D01*
X57611Y-41854D01*
X57579Y-41832D01*
X57543Y-41817D01*
X57504Y-41809D01*
X57465Y-41809D01*
X55496Y-41809D01*
X55458Y-41817D01*
X55422Y-41832D01*
X55389Y-41853D01*
X55362Y-41881D01*
X55340Y-41913D01*
X55325Y-41949D01*
X55317Y-41988D01*
X55317Y-42027D01*
X55317Y-43012D01*
X55325Y-43050D01*
X55340Y-43086D01*
X55361Y-43119D01*
X55389Y-43146D01*
X55421Y-43168D01*
X55457Y-43183D01*
X55496Y-43191D01*
X55535Y-43191D01*
X57504Y-43191D01*
X57542Y-43183D01*
X57578Y-43168D01*
X57611Y-43147D01*
X57638Y-43119D01*
X57660Y-43087D01*
X57675Y-43051D01*
X57683Y-43012D01*
X57683Y-42973D01*
X57683Y-42820D01*
X59696Y-42820D01*
X59700Y-42820D01*
X59718Y-42818D01*
X59759Y-42815D01*
X59762Y-42814D01*
X59819Y-42797D01*
X59819Y-42796D01*
X59822Y-42796D01*
X59851Y-42780D01*
X59874Y-42769D01*
X59875Y-42767D01*
X59877Y-42767D01*
X59903Y-42745D01*
X59923Y-42729D01*
X59925Y-42727D01*
X59926Y-42726D01*
X60082Y-42570D01*
X60177Y-42570D01*
X59480Y-43267D01*
X59476Y-43271D01*
X59436Y-43319D01*
X59435Y-43320D01*
X59434Y-43322D01*
X59404Y-43377D01*
X59386Y-43436D01*
X59382Y-43478D01*
X59380Y-43496D01*
X59380Y-43499D01*
X59380Y-43500D01*
X59380Y-45067D01*
X58767Y-45680D01*
X57683Y-45680D01*
X57683Y-45488D01*
X57675Y-45450D01*
X57660Y-45414D01*
X57639Y-45381D01*
X57611Y-45354D01*
X57579Y-45332D01*
X57543Y-45317D01*
X57504Y-45309D01*
X57465Y-45309D01*
X55496Y-45309D01*
X55458Y-45317D01*
X55422Y-45332D01*
X55389Y-45353D01*
X55362Y-45381D01*
X55340Y-45413D01*
X55325Y-45449D01*
X55317Y-45488D01*
X55317Y-45527D01*
X55317Y-46512D01*
X55325Y-46550D01*
X55340Y-46586D01*
X55361Y-46619D01*
X55389Y-46646D01*
X55421Y-46668D01*
X55457Y-46683D01*
X55496Y-46691D01*
X55535Y-46691D01*
X57504Y-46691D01*
X57542Y-46683D01*
X57578Y-46668D01*
X57611Y-46647D01*
X57638Y-46619D01*
X57660Y-46587D01*
X57675Y-46551D01*
X57683Y-46512D01*
X57683Y-46473D01*
X57683Y-46320D01*
X58896Y-46320D01*
X58900Y-46320D01*
X58918Y-46318D01*
X58959Y-46315D01*
X58962Y-46314D01*
X59019Y-46297D01*
X59019Y-46296D01*
X59022Y-46296D01*
X59051Y-46280D01*
X59074Y-46269D01*
X59075Y-46267D01*
X59077Y-46267D01*
X59103Y-46245D01*
X59123Y-46229D01*
X59125Y-46227D01*
X59126Y-46226D01*
X59923Y-45429D01*
X59924Y-45429D01*
X59924Y-45428D01*
X59926Y-45427D01*
X59942Y-45407D01*
X59964Y-45381D01*
X59964Y-45379D01*
X59966Y-45378D01*
X59976Y-45358D01*
X59994Y-45326D01*
X59994Y-45323D01*
X59995Y-45323D01*
X60013Y-45267D01*
X60014Y-45264D01*
X60015Y-45242D01*
X60020Y-45204D01*
X60020Y-45200D01*
X60020Y-43632D01*
X60582Y-43070D01*
X60978Y-43070D01*
X60380Y-43667D01*
X60376Y-43671D01*
X60336Y-43719D01*
X60335Y-43720D01*
X60334Y-43722D01*
X60304Y-43777D01*
X60286Y-43836D01*
X60282Y-43878D01*
X60280Y-43896D01*
X60280Y-43899D01*
X60280Y-43900D01*
X60280Y-45867D01*
X58967Y-47180D01*
X57683Y-47180D01*
X57683Y-46988D01*
X57675Y-46950D01*
X57660Y-46914D01*
X57639Y-46881D01*
X57611Y-46854D01*
X57579Y-46832D01*
X57543Y-46817D01*
X57504Y-46809D01*
X57465Y-46809D01*
X55496Y-46809D01*
X55458Y-46817D01*
X55422Y-46832D01*
X55389Y-46853D01*
X55362Y-46881D01*
X55340Y-46913D01*
X55325Y-46949D01*
X55317Y-46988D01*
X55317Y-47027D01*
X55317Y-48012D01*
X55325Y-48050D01*
X55340Y-48086D01*
X55361Y-48119D01*
X55389Y-48146D01*
X55421Y-48168D01*
X55457Y-48183D01*
X55496Y-48191D01*
X55535Y-48191D01*
X57504Y-48191D01*
X57542Y-48183D01*
X57578Y-48168D01*
X57611Y-48147D01*
X57638Y-48119D01*
X57660Y-48087D01*
X57675Y-48051D01*
X57683Y-48012D01*
X57683Y-47973D01*
X57683Y-47820D01*
X59096Y-47820D01*
X59100Y-47820D01*
X59118Y-47818D01*
X59159Y-47815D01*
X59162Y-47814D01*
X59219Y-47797D01*
X59219Y-47796D01*
X59222Y-47796D01*
X59251Y-47780D01*
X59274Y-47769D01*
X59275Y-47767D01*
X59277Y-47767D01*
X59303Y-47745D01*
X59323Y-47729D01*
X59325Y-47727D01*
X59326Y-47726D01*
X60823Y-46229D01*
X60824Y-46229D01*
X60824Y-46228D01*
X60826Y-46227D01*
X60842Y-46207D01*
X60864Y-46181D01*
X60864Y-46179D01*
X60866Y-46178D01*
X60876Y-46158D01*
X60894Y-46126D01*
X60894Y-46123D01*
X60895Y-46123D01*
X60913Y-46067D01*
X60914Y-46064D01*
X60915Y-46042D01*
X60920Y-46004D01*
X60920Y-46000D01*
X60920Y-44032D01*
X61251Y-43701D01*
X61251Y-43870D01*
X61259Y-43908D01*
X61274Y-43944D01*
X61295Y-43977D01*
X61323Y-44004D01*
X61355Y-44026D01*
X61380Y-44036D01*
X61380Y-46968D01*
X59668Y-48680D01*
X57683Y-48680D01*
X57683Y-48488D01*
X57675Y-48450D01*
X57660Y-48414D01*
X57639Y-48381D01*
X57611Y-48354D01*
X57579Y-48332D01*
X57543Y-48317D01*
X57504Y-48309D01*
X57465Y-48309D01*
X55496Y-48309D01*
X55458Y-48317D01*
X55422Y-48332D01*
X55389Y-48353D01*
X55362Y-48381D01*
X55340Y-48413D01*
X55325Y-48449D01*
X55317Y-48488D01*
X55317Y-48527D01*
X55317Y-49512D01*
X55325Y-49550D01*
X55340Y-49586D01*
X55361Y-49619D01*
X55389Y-49646D01*
X55421Y-49668D01*
X55449Y-49680D01*
X55132Y-49680D01*
X54320Y-48868D01*
X54320Y-44820D01*
X55317Y-44820D01*
X55317Y-45012D01*
X55325Y-45050D01*
X55340Y-45086D01*
X55361Y-45119D01*
X55389Y-45146D01*
X55421Y-45168D01*
X55457Y-45183D01*
X55496Y-45191D01*
X55535Y-45191D01*
X57504Y-45191D01*
X57542Y-45183D01*
X57578Y-45168D01*
X57611Y-45147D01*
X57638Y-45119D01*
X57660Y-45087D01*
X57675Y-45051D01*
X57683Y-45012D01*
X57683Y-44973D01*
X57683Y-43988D01*
X57675Y-43950D01*
X57660Y-43914D01*
X57639Y-43881D01*
X57611Y-43854D01*
X57579Y-43832D01*
X57543Y-43817D01*
X57504Y-43809D01*
X57465Y-43809D01*
X55496Y-43809D01*
X55458Y-43817D01*
X55422Y-43832D01*
X55389Y-43853D01*
X55362Y-43881D01*
X55340Y-43913D01*
X55325Y-43949D01*
X55317Y-43988D01*
X55317Y-44027D01*
X55317Y-44180D01*
X54320Y-44180D01*
X54320Y-38320D01*
X55317Y-38320D01*
X55317Y-38512D01*
X55325Y-38550D01*
X55340Y-38586D01*
X55361Y-38619D01*
X55389Y-38646D01*
X55421Y-38668D01*
X55457Y-38683D01*
X55496Y-38691D01*
X55535Y-38691D01*
X57504Y-38691D01*
X57542Y-38683D01*
X57578Y-38668D01*
X57611Y-38647D01*
X57638Y-38619D01*
X57660Y-38587D01*
X57675Y-38551D01*
X57683Y-38512D01*
X57683Y-38473D01*
X57683Y-37488D01*
X57675Y-37450D01*
X57660Y-37414D01*
X57639Y-37381D01*
X57611Y-37354D01*
X57579Y-37332D01*
X57543Y-37317D01*
X57504Y-37309D01*
X57465Y-37309D01*
X55496Y-37309D01*
X55458Y-37317D01*
X55422Y-37332D01*
X55389Y-37353D01*
X55362Y-37381D01*
X55340Y-37413D01*
X55325Y-37449D01*
X55317Y-37488D01*
X55317Y-37527D01*
X55317Y-37680D01*
X54320Y-37680D01*
X54320Y-32632D01*
X55132Y-31820D01*
X55317Y-31820D01*
X55317Y-32012D01*
X55325Y-32050D01*
X55340Y-32086D01*
X55361Y-32119D01*
X55389Y-32146D01*
X55421Y-32168D01*
X55457Y-32183D01*
X55496Y-32191D01*
X55535Y-32191D01*
X57504Y-32191D01*
X57542Y-32183D01*
X57578Y-32168D01*
X57611Y-32147D01*
X57638Y-32119D01*
X57660Y-32087D01*
X57675Y-32051D01*
X57683Y-32012D01*
X57683Y-31973D01*
X57683Y-30988D01*
X57675Y-30950D01*
X57660Y-30914D01*
X57639Y-30881D01*
X57611Y-30854D01*
X57579Y-30832D01*
X57543Y-30817D01*
X57504Y-30809D01*
X57465Y-30809D01*
X55496Y-30809D01*
X55458Y-30817D01*
X55422Y-30832D01*
X55389Y-30853D01*
X55362Y-30881D01*
X55340Y-30913D01*
X55325Y-30949D01*
X55317Y-30988D01*
X55317Y-31027D01*
X55317Y-31180D01*
X55003Y-31180D01*
X55000Y-31180D01*
X54985Y-31181D01*
X54941Y-31185D01*
X54881Y-31203D01*
X54880Y-31203D01*
X54878Y-31204D01*
X54849Y-31219D01*
X54826Y-31231D01*
X54824Y-31232D01*
X54823Y-31233D01*
X54811Y-31243D01*
X54776Y-31271D01*
X54774Y-31274D01*
X53780Y-32267D01*
X53776Y-32271D01*
X53736Y-32319D01*
X53735Y-32320D01*
X53734Y-32322D01*
X53704Y-32377D01*
X53695Y-32406D01*
X53695Y-28195D01*
X62497Y-28195D01*
X62500Y-28195D01*
X73305Y-28195D01*
X73305Y-30407D01*
X73305Y-30407D01*
G37*
G54D16*
X73305Y-30407D02*
X73297Y-30381D01*
X73296Y-30380D01*
X73296Y-30378D01*
X73280Y-30349D01*
X73269Y-30326D01*
X73267Y-30324D01*
X73267Y-30323D01*
X73257Y-30311D01*
X73229Y-30276D01*
X73227Y-30275D01*
X73226Y-30274D01*
X72232Y-29280D01*
X72229Y-29276D01*
X72226Y-29274D01*
X72181Y-29236D01*
X72179Y-29235D01*
X72178Y-29234D01*
X72126Y-29206D01*
X72123Y-29204D01*
X72067Y-29187D01*
X72064Y-29186D01*
X72022Y-29182D01*
X72004Y-29180D01*
X72001Y-29180D01*
X72000Y-29180D01*
X67691Y-29180D01*
X67691Y-28496D01*
X67683Y-28458D01*
X67668Y-28422D01*
X67647Y-28389D01*
X67619Y-28362D01*
X67587Y-28340D01*
X67551Y-28325D01*
X67512Y-28317D01*
X67473Y-28317D01*
X66488Y-28317D01*
X66450Y-28325D01*
X66414Y-28340D01*
X66381Y-28361D01*
X66354Y-28389D01*
X66332Y-28421D01*
X66317Y-28457D01*
X66309Y-28496D01*
X66309Y-28535D01*
X66309Y-30504D01*
X66317Y-30542D01*
X66332Y-30578D01*
X66353Y-30611D01*
X66381Y-30638D01*
X66413Y-30660D01*
X66449Y-30675D01*
X66488Y-30683D01*
X66527Y-30683D01*
X66680Y-30683D01*
X66680Y-31868D01*
X65080Y-33467D01*
X65076Y-33471D01*
X65036Y-33519D01*
X65035Y-33520D01*
X65034Y-33522D01*
X65004Y-33577D01*
X64986Y-33636D01*
X64982Y-33678D01*
X64980Y-33696D01*
X64980Y-33699D01*
X64980Y-33700D01*
X64980Y-36964D01*
X64956Y-36974D01*
X64923Y-36995D01*
X64896Y-37023D01*
X64874Y-37055D01*
X64859Y-37091D01*
X64851Y-37130D01*
X64851Y-37169D01*
X64851Y-37370D01*
X64859Y-37408D01*
X64874Y-37444D01*
X64895Y-37477D01*
X64918Y-37499D01*
X64896Y-37523D01*
X64874Y-37555D01*
X64859Y-37591D01*
X64851Y-37630D01*
X64851Y-37669D01*
X64851Y-37870D01*
X64859Y-37908D01*
X64874Y-37944D01*
X64895Y-37977D01*
X64918Y-37999D01*
X64896Y-38023D01*
X64874Y-38055D01*
X64859Y-38091D01*
X64851Y-38130D01*
X64851Y-38169D01*
X64851Y-38298D01*
X64820Y-38267D01*
X64820Y-33332D01*
X65719Y-32432D01*
X65724Y-32429D01*
X65726Y-32426D01*
X65764Y-32381D01*
X65764Y-32379D01*
X65766Y-32378D01*
X65776Y-32358D01*
X65794Y-32326D01*
X65794Y-32323D01*
X65795Y-32323D01*
X65813Y-32267D01*
X65814Y-32264D01*
X65815Y-32242D01*
X65820Y-32204D01*
X65820Y-32200D01*
X65820Y-30683D01*
X66012Y-30683D01*
X66050Y-30675D01*
X66086Y-30660D01*
X66119Y-30639D01*
X66146Y-30611D01*
X66168Y-30579D01*
X66183Y-30543D01*
X66191Y-30504D01*
X66191Y-30465D01*
X66191Y-28496D01*
X66183Y-28458D01*
X66168Y-28422D01*
X66147Y-28389D01*
X66119Y-28362D01*
X66087Y-28340D01*
X66051Y-28325D01*
X66012Y-28317D01*
X65973Y-28317D01*
X64988Y-28317D01*
X64950Y-28325D01*
X64914Y-28340D01*
X64881Y-28361D01*
X64854Y-28389D01*
X64832Y-28421D01*
X64817Y-28457D01*
X64809Y-28496D01*
X64809Y-28535D01*
X64809Y-30504D01*
X64817Y-30542D01*
X64832Y-30578D01*
X64853Y-30611D01*
X64881Y-30638D01*
X64913Y-30660D01*
X64949Y-30675D01*
X64988Y-30683D01*
X65027Y-30683D01*
X65180Y-30683D01*
X65180Y-32068D01*
X64320Y-32928D01*
X64320Y-30683D01*
X64512Y-30683D01*
X64550Y-30675D01*
X64586Y-30660D01*
X64619Y-30639D01*
X64646Y-30611D01*
X64668Y-30579D01*
X64683Y-30543D01*
X64691Y-30504D01*
X64691Y-30465D01*
X64691Y-28496D01*
X64683Y-28458D01*
X64668Y-28422D01*
X64647Y-28389D01*
X64619Y-28362D01*
X64587Y-28340D01*
X64551Y-28325D01*
X64512Y-28317D01*
X64473Y-28317D01*
X63488Y-28317D01*
X63450Y-28325D01*
X63414Y-28340D01*
X63381Y-28361D01*
X63354Y-28389D01*
X63332Y-28421D01*
X63317Y-28457D01*
X63309Y-28496D01*
X63309Y-28535D01*
X63309Y-30504D01*
X63317Y-30542D01*
X63332Y-30578D01*
X63353Y-30611D01*
X63381Y-30638D01*
X63413Y-30660D01*
X63449Y-30675D01*
X63488Y-30683D01*
X63527Y-30683D01*
X63680Y-30683D01*
X63680Y-38596D01*
X63680Y-38600D01*
X63681Y-38618D01*
X63685Y-38659D01*
X63686Y-38662D01*
X63703Y-38719D01*
X63704Y-38722D01*
X63719Y-38751D01*
X63731Y-38774D01*
X63732Y-38775D01*
X63733Y-38777D01*
X63755Y-38803D01*
X63771Y-38823D01*
X63773Y-38825D01*
X63774Y-38826D01*
X64417Y-39469D01*
X64421Y-39474D01*
X64424Y-39476D01*
X64469Y-39514D01*
X64470Y-39514D01*
X64472Y-39516D01*
X64492Y-39526D01*
X64524Y-39544D01*
X64526Y-39544D01*
X64527Y-39545D01*
X64583Y-39563D01*
X64586Y-39564D01*
X64607Y-39565D01*
X64646Y-39570D01*
X64650Y-39570D01*
X64867Y-39570D01*
X64859Y-39591D01*
X64851Y-39630D01*
X64851Y-39669D01*
X64851Y-39870D01*
X64859Y-39908D01*
X64874Y-39944D01*
X64895Y-39977D01*
X64918Y-39999D01*
X64896Y-40023D01*
X64874Y-40055D01*
X64859Y-40091D01*
X64851Y-40130D01*
X64851Y-40169D01*
X64851Y-40370D01*
X64859Y-40408D01*
X64874Y-40444D01*
X64895Y-40477D01*
X64918Y-40499D01*
X64896Y-40523D01*
X64874Y-40555D01*
X64859Y-40591D01*
X64851Y-40630D01*
X64851Y-40669D01*
X64851Y-40870D01*
X64859Y-40908D01*
X64874Y-40944D01*
X64895Y-40977D01*
X64918Y-40999D01*
X64896Y-41023D01*
X64874Y-41055D01*
X64859Y-41091D01*
X64851Y-41130D01*
X64851Y-41169D01*
X64851Y-41370D01*
X64859Y-41408D01*
X64874Y-41444D01*
X64895Y-41477D01*
X64918Y-41499D01*
X64896Y-41523D01*
X64874Y-41555D01*
X64859Y-41591D01*
X64851Y-41630D01*
X64851Y-41669D01*
X64851Y-41870D01*
X64859Y-41908D01*
X64874Y-41944D01*
X64895Y-41977D01*
X64918Y-41999D01*
X64896Y-42023D01*
X64874Y-42055D01*
X64859Y-42091D01*
X64851Y-42130D01*
X64851Y-42169D01*
X64851Y-42370D01*
X64859Y-42408D01*
X64874Y-42444D01*
X64895Y-42477D01*
X64918Y-42499D01*
X64896Y-42523D01*
X64874Y-42555D01*
X64859Y-42591D01*
X64851Y-42630D01*
X64851Y-42669D01*
X64851Y-42870D01*
X64859Y-42908D01*
X64874Y-42944D01*
X64895Y-42977D01*
X64918Y-42999D01*
X64896Y-43023D01*
X64874Y-43055D01*
X64859Y-43091D01*
X64851Y-43130D01*
X64851Y-43169D01*
X64851Y-43370D01*
X64859Y-43408D01*
X64874Y-43444D01*
X64895Y-43477D01*
X64918Y-43499D01*
X64896Y-43523D01*
X64874Y-43555D01*
X64859Y-43591D01*
X64851Y-43630D01*
X64851Y-43669D01*
X64851Y-43870D01*
X64859Y-43908D01*
X64874Y-43944D01*
X64895Y-43977D01*
X64923Y-44004D01*
X64955Y-44026D01*
X64980Y-44036D01*
X64980Y-46096D01*
X64980Y-46100D01*
X64981Y-46118D01*
X64985Y-46159D01*
X64986Y-46162D01*
X65003Y-46219D01*
X65004Y-46222D01*
X65019Y-46251D01*
X65031Y-46274D01*
X65032Y-46275D01*
X65033Y-46277D01*
X65055Y-46303D01*
X65071Y-46323D01*
X65073Y-46325D01*
X65074Y-46326D01*
X66470Y-47723D01*
X66471Y-47724D01*
X66473Y-47726D01*
X66489Y-47739D01*
X66519Y-47764D01*
X66521Y-47765D01*
X66574Y-47794D01*
X66576Y-47795D01*
X66592Y-47799D01*
X66633Y-47813D01*
X66636Y-47813D01*
X66696Y-47820D01*
X66700Y-47820D01*
X69317Y-47820D01*
X69317Y-48012D01*
X69325Y-48050D01*
X69340Y-48086D01*
X69361Y-48119D01*
X69389Y-48146D01*
X69421Y-48168D01*
X69457Y-48183D01*
X69496Y-48191D01*
X69535Y-48191D01*
X71504Y-48191D01*
X71542Y-48183D01*
X71578Y-48168D01*
X71611Y-48147D01*
X71638Y-48119D01*
X71660Y-48087D01*
X71675Y-48051D01*
X71683Y-48012D01*
X71683Y-47973D01*
X71683Y-46988D01*
X71675Y-46950D01*
X71660Y-46914D01*
X71639Y-46881D01*
X71611Y-46854D01*
X71579Y-46832D01*
X71543Y-46817D01*
X71504Y-46809D01*
X71465Y-46809D01*
X69496Y-46809D01*
X69458Y-46817D01*
X69422Y-46832D01*
X69389Y-46853D01*
X69362Y-46881D01*
X69340Y-46913D01*
X69325Y-46949D01*
X69317Y-46988D01*
X69317Y-47027D01*
X69317Y-47180D01*
X66832Y-47180D01*
X65620Y-45967D01*
X65620Y-44036D01*
X65644Y-44026D01*
X65677Y-44005D01*
X65704Y-43977D01*
X65726Y-43945D01*
X65741Y-43909D01*
X65749Y-43870D01*
X65749Y-43831D01*
X65749Y-43801D01*
X65780Y-43832D01*
X65780Y-44896D01*
X65780Y-44900D01*
X65781Y-44918D01*
X65785Y-44959D01*
X65786Y-44962D01*
X65803Y-45019D01*
X65804Y-45022D01*
X65819Y-45051D01*
X65831Y-45074D01*
X65832Y-45075D01*
X65833Y-45077D01*
X65855Y-45103D01*
X65871Y-45123D01*
X65873Y-45125D01*
X65874Y-45126D01*
X66970Y-46223D01*
X66971Y-46224D01*
X66973Y-46226D01*
X66989Y-46239D01*
X67019Y-46264D01*
X67021Y-46265D01*
X67074Y-46294D01*
X67076Y-46294D01*
X67077Y-46295D01*
X67133Y-46313D01*
X67136Y-46314D01*
X67157Y-46315D01*
X67196Y-46320D01*
X67200Y-46320D01*
X69317Y-46320D01*
X69317Y-46512D01*
X69325Y-46550D01*
X69340Y-46586D01*
X69361Y-46619D01*
X69389Y-46646D01*
X69421Y-46668D01*
X69457Y-46683D01*
X69496Y-46691D01*
X69535Y-46691D01*
X71504Y-46691D01*
X71542Y-46683D01*
X71578Y-46668D01*
X71611Y-46647D01*
X71638Y-46619D01*
X71660Y-46587D01*
X71675Y-46551D01*
X71683Y-46512D01*
X71683Y-46473D01*
X71683Y-45488D01*
X71675Y-45450D01*
X71660Y-45414D01*
X71639Y-45381D01*
X71611Y-45354D01*
X71579Y-45332D01*
X71543Y-45317D01*
X71504Y-45309D01*
X71465Y-45309D01*
X69496Y-45309D01*
X69458Y-45317D01*
X69422Y-45332D01*
X69389Y-45353D01*
X69362Y-45381D01*
X69340Y-45413D01*
X69325Y-45449D01*
X69317Y-45488D01*
X69317Y-45527D01*
X69317Y-45680D01*
X67332Y-45680D01*
X66420Y-44767D01*
X66420Y-43703D01*
X66420Y-43700D01*
X66414Y-43641D01*
X66414Y-43638D01*
X66398Y-43587D01*
X66397Y-43581D01*
X66396Y-43580D01*
X66396Y-43578D01*
X66368Y-43526D01*
X66367Y-43523D01*
X66346Y-43497D01*
X66329Y-43476D01*
X66326Y-43473D01*
X65922Y-43070D01*
X66317Y-43070D01*
X67970Y-44723D01*
X67971Y-44724D01*
X67973Y-44726D01*
X67989Y-44739D01*
X68019Y-44764D01*
X68021Y-44765D01*
X68074Y-44794D01*
X68076Y-44795D01*
X68092Y-44799D01*
X68133Y-44813D01*
X68136Y-44813D01*
X68196Y-44820D01*
X68200Y-44820D01*
X69317Y-44820D01*
X69317Y-45012D01*
X69325Y-45050D01*
X69340Y-45086D01*
X69361Y-45119D01*
X69389Y-45146D01*
X69421Y-45168D01*
X69457Y-45183D01*
X69496Y-45191D01*
X69535Y-45191D01*
X71504Y-45191D01*
X71542Y-45183D01*
X71578Y-45168D01*
X71611Y-45147D01*
X71638Y-45119D01*
X71660Y-45087D01*
X71675Y-45051D01*
X71683Y-45012D01*
X71683Y-44973D01*
X71683Y-43988D01*
X71675Y-43950D01*
X71660Y-43914D01*
X71639Y-43881D01*
X71611Y-43854D01*
X71579Y-43832D01*
X71543Y-43817D01*
X71504Y-43809D01*
X71465Y-43809D01*
X69496Y-43809D01*
X69458Y-43817D01*
X69422Y-43832D01*
X69389Y-43853D01*
X69362Y-43881D01*
X69340Y-43913D01*
X69325Y-43949D01*
X69317Y-43988D01*
X69317Y-44027D01*
X69317Y-44180D01*
X68332Y-44180D01*
X66722Y-42570D01*
X68546Y-42570D01*
X68550Y-42570D01*
X68568Y-42568D01*
X68609Y-42565D01*
X68612Y-42564D01*
X68669Y-42547D01*
X68669Y-42546D01*
X68672Y-42546D01*
X68701Y-42530D01*
X68724Y-42519D01*
X68725Y-42517D01*
X68727Y-42517D01*
X68753Y-42495D01*
X68773Y-42479D01*
X68775Y-42477D01*
X68776Y-42476D01*
X69223Y-42029D01*
X69224Y-42029D01*
X69224Y-42028D01*
X69226Y-42027D01*
X69242Y-42007D01*
X69264Y-41981D01*
X69264Y-41979D01*
X69266Y-41978D01*
X69276Y-41958D01*
X69294Y-41926D01*
X69294Y-41923D01*
X69295Y-41923D01*
X69313Y-41867D01*
X69314Y-41864D01*
X69315Y-41842D01*
X69320Y-41804D01*
X69320Y-41800D01*
X69320Y-41526D01*
X69325Y-41550D01*
X69340Y-41586D01*
X69361Y-41619D01*
X69389Y-41646D01*
X69421Y-41668D01*
X69457Y-41683D01*
X69496Y-41691D01*
X69535Y-41691D01*
X71504Y-41691D01*
X71542Y-41683D01*
X71578Y-41668D01*
X71611Y-41647D01*
X71638Y-41619D01*
X71660Y-41587D01*
X71675Y-41551D01*
X71683Y-41512D01*
X71683Y-41473D01*
X71683Y-40488D01*
X71675Y-40450D01*
X71660Y-40414D01*
X71639Y-40381D01*
X71611Y-40354D01*
X71579Y-40332D01*
X71543Y-40317D01*
X71504Y-40309D01*
X71465Y-40309D01*
X69496Y-40309D01*
X69458Y-40317D01*
X69422Y-40332D01*
X69389Y-40353D01*
X69362Y-40381D01*
X69340Y-40413D01*
X69325Y-40449D01*
X69320Y-40473D01*
X69320Y-40032D01*
X69321Y-40031D01*
X69325Y-40050D01*
X69340Y-40086D01*
X69361Y-40119D01*
X69389Y-40146D01*
X69421Y-40168D01*
X69457Y-40183D01*
X69496Y-40191D01*
X69535Y-40191D01*
X71504Y-40191D01*
X71542Y-40183D01*
X71578Y-40168D01*
X71611Y-40147D01*
X71638Y-40119D01*
X71660Y-40087D01*
X71675Y-40051D01*
X71683Y-40012D01*
X71683Y-39973D01*
X71683Y-38988D01*
X71675Y-38950D01*
X71660Y-38914D01*
X71639Y-38881D01*
X71611Y-38854D01*
X71579Y-38832D01*
X71543Y-38817D01*
X71504Y-38809D01*
X71465Y-38809D01*
X69496Y-38809D01*
X69458Y-38817D01*
X69422Y-38832D01*
X69389Y-38853D01*
X69362Y-38881D01*
X69340Y-38913D01*
X69325Y-38949D01*
X69317Y-38988D01*
X69317Y-39027D01*
X69317Y-39192D01*
X69287Y-39201D01*
X69281Y-39203D01*
X69280Y-39203D01*
X69278Y-39204D01*
X69223Y-39233D01*
X69197Y-39253D01*
X69176Y-39271D01*
X69173Y-39274D01*
X68820Y-39627D01*
X68820Y-38932D01*
X69317Y-38435D01*
X69317Y-38512D01*
X69325Y-38550D01*
X69340Y-38586D01*
X69361Y-38619D01*
X69389Y-38646D01*
X69421Y-38668D01*
X69457Y-38683D01*
X69496Y-38691D01*
X69535Y-38691D01*
X71504Y-38691D01*
X71542Y-38683D01*
X71578Y-38668D01*
X71611Y-38647D01*
X71638Y-38619D01*
X71660Y-38587D01*
X71675Y-38551D01*
X71683Y-38512D01*
X71683Y-38473D01*
X71683Y-37488D01*
X71675Y-37450D01*
X71660Y-37414D01*
X71639Y-37381D01*
X71611Y-37354D01*
X71579Y-37332D01*
X71543Y-37317D01*
X71504Y-37309D01*
X71465Y-37309D01*
X69496Y-37309D01*
X69458Y-37317D01*
X69422Y-37332D01*
X69389Y-37353D01*
X69362Y-37381D01*
X69340Y-37413D01*
X69325Y-37449D01*
X69317Y-37488D01*
X69317Y-37527D01*
X69317Y-37680D01*
X69303Y-37680D01*
X69300Y-37680D01*
X69238Y-37686D01*
X69187Y-37701D01*
X69181Y-37703D01*
X69180Y-37703D01*
X69178Y-37704D01*
X69123Y-37733D01*
X69097Y-37753D01*
X69076Y-37771D01*
X69073Y-37774D01*
X68320Y-38527D01*
X68320Y-35432D01*
X68932Y-34820D01*
X69317Y-34820D01*
X69317Y-35012D01*
X69325Y-35050D01*
X69340Y-35086D01*
X69361Y-35119D01*
X69389Y-35146D01*
X69421Y-35168D01*
X69457Y-35183D01*
X69496Y-35191D01*
X69535Y-35191D01*
X71504Y-35191D01*
X71542Y-35183D01*
X71578Y-35168D01*
X71611Y-35147D01*
X71638Y-35119D01*
X71660Y-35087D01*
X71675Y-35051D01*
X71683Y-35012D01*
X71683Y-34973D01*
X71683Y-33988D01*
X71675Y-33950D01*
X71660Y-33914D01*
X71639Y-33881D01*
X71611Y-33854D01*
X71579Y-33832D01*
X71543Y-33817D01*
X71504Y-33809D01*
X71465Y-33809D01*
X69496Y-33809D01*
X69458Y-33817D01*
X69422Y-33832D01*
X69389Y-33853D01*
X69362Y-33881D01*
X69340Y-33913D01*
X69325Y-33949D01*
X69317Y-33988D01*
X69317Y-34027D01*
X69317Y-34180D01*
X68803Y-34180D01*
X68800Y-34180D01*
X68738Y-34186D01*
X68687Y-34201D01*
X68681Y-34203D01*
X68680Y-34203D01*
X68678Y-34204D01*
X68623Y-34233D01*
X68597Y-34253D01*
X68576Y-34271D01*
X68573Y-34274D01*
X67820Y-35027D01*
X67820Y-34932D01*
X69317Y-33435D01*
X69317Y-33512D01*
X69325Y-33550D01*
X69340Y-33586D01*
X69361Y-33619D01*
X69389Y-33646D01*
X69421Y-33668D01*
X69457Y-33683D01*
X69496Y-33691D01*
X69535Y-33691D01*
X71504Y-33691D01*
X71542Y-33683D01*
X71578Y-33668D01*
X71611Y-33647D01*
X71638Y-33619D01*
X71660Y-33587D01*
X71675Y-33551D01*
X71683Y-33512D01*
X71683Y-33473D01*
X71683Y-32488D01*
X71675Y-32450D01*
X71660Y-32414D01*
X71639Y-32381D01*
X71611Y-32354D01*
X71579Y-32332D01*
X71543Y-32317D01*
X71504Y-32309D01*
X71465Y-32309D01*
X69496Y-32309D01*
X69458Y-32317D01*
X69422Y-32332D01*
X69389Y-32353D01*
X69362Y-32381D01*
X69340Y-32413D01*
X69325Y-32449D01*
X69317Y-32488D01*
X69317Y-32527D01*
X69317Y-32680D01*
X69303Y-32680D01*
X69300Y-32680D01*
X69238Y-32686D01*
X69187Y-32701D01*
X69181Y-32703D01*
X69180Y-32703D01*
X69178Y-32704D01*
X69123Y-32733D01*
X69097Y-32753D01*
X69076Y-32771D01*
X69073Y-32774D01*
X67320Y-34527D01*
X67320Y-33732D01*
X69232Y-31820D01*
X69317Y-31820D01*
X69317Y-32012D01*
X69325Y-32050D01*
X69340Y-32086D01*
X69361Y-32119D01*
X69389Y-32146D01*
X69421Y-32168D01*
X69457Y-32183D01*
X69496Y-32191D01*
X69535Y-32191D01*
X71504Y-32191D01*
X71542Y-32183D01*
X71578Y-32168D01*
X71611Y-32147D01*
X71638Y-32119D01*
X71660Y-32087D01*
X71675Y-32051D01*
X71683Y-32012D01*
X71683Y-31973D01*
X71683Y-30988D01*
X71675Y-30950D01*
X71660Y-30914D01*
X71639Y-30881D01*
X71611Y-30854D01*
X71579Y-30832D01*
X71543Y-30817D01*
X71504Y-30809D01*
X71465Y-30809D01*
X69496Y-30809D01*
X69458Y-30817D01*
X69422Y-30832D01*
X69389Y-30853D01*
X69362Y-30881D01*
X69340Y-30913D01*
X69325Y-30949D01*
X69317Y-30988D01*
X69317Y-31027D01*
X69317Y-31180D01*
X69103Y-31180D01*
X69100Y-31180D01*
X69038Y-31186D01*
X68978Y-31204D01*
X68923Y-31233D01*
X68907Y-31246D01*
X68876Y-31271D01*
X68873Y-31274D01*
X66780Y-33367D01*
X66776Y-33371D01*
X66736Y-33419D01*
X66735Y-33420D01*
X66734Y-33422D01*
X66704Y-33477D01*
X66686Y-33536D01*
X66682Y-33578D01*
X66680Y-33596D01*
X66680Y-33599D01*
X66680Y-33600D01*
X66680Y-38968D01*
X66218Y-39430D01*
X65732Y-39430D01*
X65741Y-39409D01*
X65749Y-39370D01*
X65749Y-39331D01*
X65749Y-39130D01*
X65741Y-39092D01*
X65726Y-39056D01*
X65705Y-39023D01*
X65681Y-39000D01*
X65704Y-38977D01*
X65726Y-38945D01*
X65741Y-38909D01*
X65749Y-38870D01*
X65749Y-38831D01*
X65749Y-38630D01*
X65741Y-38592D01*
X65726Y-38556D01*
X65705Y-38523D01*
X65681Y-38500D01*
X65704Y-38477D01*
X65726Y-38445D01*
X65741Y-38409D01*
X65749Y-38370D01*
X65749Y-38331D01*
X65749Y-38130D01*
X65741Y-38092D01*
X65726Y-38056D01*
X65705Y-38023D01*
X65681Y-38000D01*
X65704Y-37977D01*
X65726Y-37945D01*
X65741Y-37909D01*
X65749Y-37870D01*
X65749Y-37831D01*
X65749Y-37630D01*
X65741Y-37592D01*
X65726Y-37556D01*
X65705Y-37523D01*
X65681Y-37500D01*
X65704Y-37477D01*
X65726Y-37445D01*
X65741Y-37409D01*
X65749Y-37370D01*
X65749Y-37331D01*
X65749Y-37130D01*
X65741Y-37092D01*
X65726Y-37056D01*
X65705Y-37023D01*
X65677Y-36996D01*
X65645Y-36974D01*
X65620Y-36963D01*
X65620Y-33832D01*
X67219Y-32232D01*
X67224Y-32229D01*
X67226Y-32226D01*
X67264Y-32181D01*
X67264Y-32179D01*
X67266Y-32178D01*
X67276Y-32158D01*
X67294Y-32126D01*
X67294Y-32123D01*
X67295Y-32123D01*
X67313Y-32067D01*
X67314Y-32064D01*
X67315Y-32042D01*
X67320Y-32004D01*
X67320Y-32000D01*
X67320Y-30683D01*
X67512Y-30683D01*
X67550Y-30675D01*
X67586Y-30660D01*
X67619Y-30639D01*
X67646Y-30611D01*
X67668Y-30579D01*
X67683Y-30543D01*
X67691Y-30504D01*
X67691Y-30465D01*
X67691Y-29820D01*
X71868Y-29820D01*
X72680Y-30632D01*
X72680Y-35680D01*
X71683Y-35680D01*
X71683Y-35488D01*
X71675Y-35450D01*
X71660Y-35414D01*
X71639Y-35381D01*
X71611Y-35354D01*
X71579Y-35332D01*
X71543Y-35317D01*
X71504Y-35309D01*
X71465Y-35309D01*
X69496Y-35309D01*
X69458Y-35317D01*
X69422Y-35332D01*
X69389Y-35353D01*
X69362Y-35381D01*
X69340Y-35413D01*
X69325Y-35449D01*
X69317Y-35488D01*
X69317Y-35527D01*
X69317Y-36512D01*
X69325Y-36550D01*
X69340Y-36586D01*
X69361Y-36619D01*
X69389Y-36646D01*
X69421Y-36668D01*
X69457Y-36683D01*
X69496Y-36691D01*
X69535Y-36691D01*
X71504Y-36691D01*
X71542Y-36683D01*
X71578Y-36668D01*
X71611Y-36647D01*
X71638Y-36619D01*
X71660Y-36587D01*
X71675Y-36551D01*
X71683Y-36512D01*
X71683Y-36473D01*
X71683Y-36320D01*
X72680Y-36320D01*
X72680Y-42180D01*
X71683Y-42180D01*
X71683Y-41988D01*
X71675Y-41950D01*
X71660Y-41914D01*
X71639Y-41881D01*
X71611Y-41854D01*
X71579Y-41832D01*
X71543Y-41817D01*
X71504Y-41809D01*
X71465Y-41809D01*
X69496Y-41809D01*
X69458Y-41817D01*
X69422Y-41832D01*
X69389Y-41853D01*
X69362Y-41881D01*
X69340Y-41913D01*
X69325Y-41949D01*
X69317Y-41988D01*
X69317Y-42027D01*
X69317Y-43012D01*
X69325Y-43050D01*
X69340Y-43086D01*
X69361Y-43119D01*
X69389Y-43146D01*
X69421Y-43168D01*
X69457Y-43183D01*
X69496Y-43191D01*
X69535Y-43191D01*
X71504Y-43191D01*
X71542Y-43183D01*
X71578Y-43168D01*
X71611Y-43147D01*
X71638Y-43119D01*
X71660Y-43087D01*
X71675Y-43051D01*
X71683Y-43012D01*
X71683Y-42973D01*
X71683Y-42820D01*
X72680Y-42820D01*
X72680Y-48680D01*
X71683Y-48680D01*
X71683Y-48488D01*
X71675Y-48450D01*
X71660Y-48414D01*
X71639Y-48381D01*
X71611Y-48354D01*
X71579Y-48332D01*
X71543Y-48317D01*
X71504Y-48309D01*
X71465Y-48309D01*
X69496Y-48309D01*
X69458Y-48317D01*
X69422Y-48332D01*
X69389Y-48353D01*
X69362Y-48381D01*
X69340Y-48413D01*
X69325Y-48449D01*
X69317Y-48488D01*
X69317Y-48527D01*
X69317Y-49512D01*
X69325Y-49550D01*
X69340Y-49586D01*
X69361Y-49619D01*
X69389Y-49646D01*
X69421Y-49668D01*
X69449Y-49680D01*
X57549Y-49680D01*
X57578Y-49668D01*
X57611Y-49647D01*
X57638Y-49619D01*
X57660Y-49587D01*
X57675Y-49551D01*
X57683Y-49512D01*
X57683Y-49473D01*
X57683Y-49320D01*
X59796Y-49320D01*
X59800Y-49320D01*
X59818Y-49318D01*
X59859Y-49315D01*
X59862Y-49314D01*
X59919Y-49297D01*
X59919Y-49296D01*
X59922Y-49296D01*
X59951Y-49280D01*
X59974Y-49269D01*
X59975Y-49267D01*
X59977Y-49267D01*
X60003Y-49245D01*
X60023Y-49229D01*
X60025Y-49227D01*
X60026Y-49226D01*
X61919Y-47332D01*
X61924Y-47329D01*
X61926Y-47326D01*
X61964Y-47281D01*
X61964Y-47279D01*
X61966Y-47278D01*
X61994Y-47226D01*
X61996Y-47223D01*
X62013Y-47167D01*
X62014Y-47164D01*
X62018Y-47122D01*
X62020Y-47104D01*
X62020Y-47101D01*
X62020Y-47100D01*
X62020Y-44036D01*
X62044Y-44026D01*
X62077Y-44005D01*
X62104Y-43977D01*
X62126Y-43945D01*
X62141Y-43909D01*
X62149Y-43870D01*
X62149Y-43831D01*
X62149Y-43630D01*
X62141Y-43592D01*
X62126Y-43556D01*
X62105Y-43523D01*
X62081Y-43500D01*
X62104Y-43477D01*
X62126Y-43445D01*
X62141Y-43409D01*
X62149Y-43370D01*
X62149Y-43331D01*
X62149Y-43130D01*
X62141Y-43092D01*
X62126Y-43056D01*
X62105Y-43023D01*
X62081Y-43000D01*
X62104Y-42977D01*
X62126Y-42945D01*
X62141Y-42909D01*
X62149Y-42870D01*
X62149Y-42831D01*
X62149Y-42630D01*
X62141Y-42592D01*
X62126Y-42556D01*
X62105Y-42523D01*
X62081Y-42500D01*
X62104Y-42477D01*
X62126Y-42445D01*
X62141Y-42409D01*
X62149Y-42370D01*
X62149Y-42331D01*
X62149Y-42130D01*
X62141Y-42092D01*
X62126Y-42056D01*
X62105Y-42023D01*
X62081Y-42000D01*
X62104Y-41977D01*
X62126Y-41945D01*
X62141Y-41909D01*
X62149Y-41870D01*
X62149Y-41831D01*
X62149Y-41630D01*
X62141Y-41592D01*
X62126Y-41556D01*
X62105Y-41523D01*
X62081Y-41500D01*
X62104Y-41477D01*
X62126Y-41445D01*
X62141Y-41409D01*
X62149Y-41370D01*
X62149Y-41331D01*
X62149Y-41130D01*
X62141Y-41092D01*
X62126Y-41056D01*
X62105Y-41023D01*
X62081Y-41000D01*
X62104Y-40977D01*
X62126Y-40945D01*
X62141Y-40909D01*
X62149Y-40870D01*
X62149Y-40831D01*
X62149Y-40630D01*
X62141Y-40592D01*
X62126Y-40556D01*
X62105Y-40523D01*
X62081Y-40500D01*
X62104Y-40477D01*
X62126Y-40445D01*
X62141Y-40409D01*
X62149Y-40370D01*
X62149Y-40331D01*
X62149Y-40130D01*
X62141Y-40092D01*
X62126Y-40056D01*
X62105Y-40023D01*
X62081Y-40000D01*
X62104Y-39977D01*
X62126Y-39945D01*
X62141Y-39909D01*
X62149Y-39870D01*
X62149Y-39831D01*
X62149Y-39630D01*
X62141Y-39592D01*
X62131Y-39570D01*
X62346Y-39570D01*
X62350Y-39570D01*
X62368Y-39568D01*
X62409Y-39565D01*
X62412Y-39564D01*
X62469Y-39547D01*
X62469Y-39546D01*
X62472Y-39546D01*
X62501Y-39530D01*
X62524Y-39519D01*
X62525Y-39517D01*
X62527Y-39517D01*
X62553Y-39495D01*
X62573Y-39479D01*
X62575Y-39477D01*
X62576Y-39476D01*
X63219Y-38832D01*
X63224Y-38829D01*
X63226Y-38826D01*
X63264Y-38781D01*
X63264Y-38779D01*
X63266Y-38778D01*
X63276Y-38758D01*
X63294Y-38726D01*
X63294Y-38723D01*
X63295Y-38723D01*
X63313Y-38667D01*
X63314Y-38664D01*
X63315Y-38642D01*
X63320Y-38604D01*
X63320Y-38600D01*
X63320Y-34703D01*
X63320Y-34700D01*
X63318Y-34685D01*
X63315Y-34641D01*
X63314Y-34638D01*
X63297Y-34581D01*
X63296Y-34580D01*
X63296Y-34578D01*
X63280Y-34549D01*
X63269Y-34526D01*
X63267Y-34524D01*
X63267Y-34523D01*
X63257Y-34511D01*
X63229Y-34476D01*
X63227Y-34475D01*
X63226Y-34474D01*
X62820Y-34068D01*
X62820Y-30683D01*
X63012Y-30683D01*
X63050Y-30675D01*
X63086Y-30660D01*
X63119Y-30639D01*
X63146Y-30611D01*
X63168Y-30579D01*
X63183Y-30543D01*
X63191Y-30504D01*
X63191Y-30465D01*
X63191Y-28496D01*
X63183Y-28458D01*
X63168Y-28422D01*
X63147Y-28389D01*
X63119Y-28362D01*
X63087Y-28340D01*
X63051Y-28325D01*
X63012Y-28317D01*
X62973Y-28317D01*
X61988Y-28317D01*
X61950Y-28325D01*
X61914Y-28340D01*
X61881Y-28361D01*
X61854Y-28389D01*
X61832Y-28421D01*
X61817Y-28457D01*
X61809Y-28496D01*
X61809Y-28535D01*
X61809Y-30504D01*
X61817Y-30542D01*
X61832Y-30578D01*
X61853Y-30611D01*
X61881Y-30638D01*
X61913Y-30660D01*
X61949Y-30675D01*
X61988Y-30683D01*
X62027Y-30683D01*
X62180Y-30683D01*
X62180Y-34128D01*
X61320Y-33268D01*
X61320Y-30683D01*
X61512Y-30683D01*
X61550Y-30675D01*
X61586Y-30660D01*
X61619Y-30639D01*
X61646Y-30611D01*
X61668Y-30579D01*
X61683Y-30543D01*
X61691Y-30504D01*
X61691Y-30465D01*
X61691Y-28496D01*
X61683Y-28458D01*
X61668Y-28422D01*
X61647Y-28389D01*
X61619Y-28362D01*
X61587Y-28340D01*
X61551Y-28325D01*
X61512Y-28317D01*
X61473Y-28317D01*
X60488Y-28317D01*
X60450Y-28325D01*
X60414Y-28340D01*
X60381Y-28361D01*
X60354Y-28389D01*
X60332Y-28421D01*
X60317Y-28457D01*
X60309Y-28496D01*
X60309Y-28535D01*
X60309Y-30504D01*
X60317Y-30542D01*
X60332Y-30578D01*
X60353Y-30611D01*
X60381Y-30638D01*
X60413Y-30660D01*
X60449Y-30675D01*
X60488Y-30683D01*
X60527Y-30683D01*
X60680Y-30683D01*
X60680Y-33396D01*
X60680Y-33400D01*
X60681Y-33418D01*
X60685Y-33459D01*
X60686Y-33462D01*
X60703Y-33519D01*
X60704Y-33522D01*
X60719Y-33551D01*
X60731Y-33574D01*
X60732Y-33575D01*
X60733Y-33577D01*
X60755Y-33603D01*
X60771Y-33623D01*
X60773Y-33625D01*
X60774Y-33626D01*
X61971Y-34823D01*
X61974Y-34826D01*
X62180Y-35032D01*
X62180Y-38167D01*
X62149Y-38198D01*
X62149Y-38130D01*
X62141Y-38092D01*
X62126Y-38056D01*
X62105Y-38023D01*
X62081Y-38000D01*
X62104Y-37977D01*
X62126Y-37945D01*
X62141Y-37909D01*
X62149Y-37870D01*
X62149Y-37831D01*
X62149Y-37630D01*
X62141Y-37592D01*
X62126Y-37556D01*
X62105Y-37523D01*
X62077Y-37496D01*
X62045Y-37474D01*
X62009Y-37459D01*
X62001Y-37457D01*
X62007Y-37455D01*
X62026Y-37442D01*
X62042Y-37426D01*
X62055Y-37406D01*
X62064Y-37385D01*
X62069Y-37362D01*
X62070Y-37290D01*
X62070Y-37210D01*
X62069Y-37138D01*
X62064Y-37115D01*
X62055Y-37094D01*
X62042Y-37074D01*
X62026Y-37058D01*
X62007Y-37045D01*
X61985Y-37036D01*
X61962Y-37031D01*
X61939Y-37031D01*
X61740Y-37030D01*
X61710Y-37060D01*
X61710Y-37240D01*
X62040Y-37240D01*
X62070Y-37210D01*
X62070Y-37290D01*
X62040Y-37260D01*
X61750Y-37260D01*
X61710Y-37260D01*
X61690Y-37260D01*
X61690Y-37240D01*
X61690Y-37060D01*
X61660Y-37030D01*
X61461Y-37031D01*
X61438Y-37031D01*
X61415Y-37036D01*
X61393Y-37045D01*
X61374Y-37058D01*
X61358Y-37074D01*
X61345Y-37094D01*
X61336Y-37115D01*
X61331Y-37138D01*
X61330Y-37210D01*
X61360Y-37240D01*
X61690Y-37240D01*
X61690Y-37260D01*
X61650Y-37260D01*
X61360Y-37260D01*
X61330Y-37290D01*
X61331Y-37362D01*
X61336Y-37385D01*
X61345Y-37406D01*
X61358Y-37426D01*
X61374Y-37442D01*
X61393Y-37455D01*
X61399Y-37457D01*
X61392Y-37459D01*
X61356Y-37474D01*
X61323Y-37495D01*
X61320Y-37498D01*
X61320Y-36649D01*
X61420Y-36649D01*
X61458Y-36641D01*
X61494Y-36626D01*
X61527Y-36605D01*
X61554Y-36577D01*
X61576Y-36545D01*
X61591Y-36509D01*
X61599Y-36470D01*
X61599Y-36431D01*
X61599Y-35830D01*
X61591Y-35792D01*
X61576Y-35756D01*
X61555Y-35723D01*
X61527Y-35696D01*
X61520Y-35691D01*
X61520Y-34890D01*
X61520Y-34810D01*
X61519Y-34538D01*
X61514Y-34515D01*
X61505Y-34494D01*
X61492Y-34474D01*
X61476Y-34458D01*
X61457Y-34445D01*
X61435Y-34436D01*
X61412Y-34431D01*
X61389Y-34431D01*
X61040Y-34430D01*
X61010Y-34460D01*
X61010Y-34840D01*
X61490Y-34840D01*
X61520Y-34810D01*
X61520Y-34890D01*
X61490Y-34860D01*
X61010Y-34860D01*
X61010Y-35240D01*
X61040Y-35270D01*
X61389Y-35269D01*
X61412Y-35269D01*
X61435Y-35264D01*
X61457Y-35255D01*
X61476Y-35242D01*
X61492Y-35226D01*
X61505Y-35206D01*
X61514Y-35185D01*
X61519Y-35162D01*
X61520Y-34890D01*
X61520Y-35691D01*
X61495Y-35674D01*
X61459Y-35659D01*
X61420Y-35651D01*
X61381Y-35651D01*
X60990Y-35651D01*
X60990Y-35240D01*
X60990Y-34860D01*
X60990Y-34840D01*
X60990Y-34460D01*
X60960Y-34430D01*
X60611Y-34431D01*
X60588Y-34431D01*
X60565Y-34436D01*
X60543Y-34445D01*
X60524Y-34458D01*
X60508Y-34474D01*
X60495Y-34494D01*
X60486Y-34515D01*
X60481Y-34538D01*
X60480Y-34810D01*
X60510Y-34840D01*
X60990Y-34840D01*
X60990Y-34860D01*
X60510Y-34860D01*
X60480Y-34890D01*
X60481Y-35162D01*
X60486Y-35185D01*
X60495Y-35206D01*
X60508Y-35226D01*
X60524Y-35242D01*
X60543Y-35255D01*
X60565Y-35264D01*
X60588Y-35269D01*
X60611Y-35269D01*
X60960Y-35270D01*
X60990Y-35240D01*
X60990Y-35651D01*
X60580Y-35651D01*
X60542Y-35659D01*
X60506Y-35674D01*
X60473Y-35695D01*
X60446Y-35723D01*
X60424Y-35755D01*
X60409Y-35791D01*
X60401Y-35830D01*
X60401Y-35869D01*
X60401Y-36470D01*
X60409Y-36508D01*
X60424Y-36544D01*
X60445Y-36577D01*
X60473Y-36604D01*
X60505Y-36626D01*
X60541Y-36641D01*
X60580Y-36649D01*
X60619Y-36649D01*
X60680Y-36649D01*
X60680Y-37996D01*
X60680Y-38000D01*
X60681Y-38018D01*
X60685Y-38059D01*
X60686Y-38062D01*
X60703Y-38119D01*
X60704Y-38122D01*
X60719Y-38151D01*
X60731Y-38174D01*
X60732Y-38175D01*
X60733Y-38177D01*
X60755Y-38203D01*
X60771Y-38223D01*
X60773Y-38225D01*
X60774Y-38226D01*
X61020Y-38473D01*
X61021Y-38474D01*
X61023Y-38476D01*
X61039Y-38489D01*
X61069Y-38514D01*
X61071Y-38515D01*
X61124Y-38544D01*
X61126Y-38544D01*
X61127Y-38545D01*
X61183Y-38563D01*
X61186Y-38564D01*
X61207Y-38565D01*
X61246Y-38570D01*
X61250Y-38570D01*
X61267Y-38570D01*
X61259Y-38591D01*
X61251Y-38630D01*
X61251Y-38669D01*
X61251Y-38870D01*
X61259Y-38908D01*
X61274Y-38944D01*
X61295Y-38977D01*
X61318Y-38999D01*
X61296Y-39023D01*
X61274Y-39055D01*
X61259Y-39091D01*
X61251Y-39130D01*
X61251Y-39169D01*
X61251Y-39370D01*
X61259Y-39408D01*
X61268Y-39430D01*
X60582Y-39430D01*
X60112Y-38959D01*
X60112Y-29540D01*
X60112Y-29460D01*
X60111Y-28504D01*
X60106Y-28481D01*
X60097Y-28460D01*
X60084Y-28440D01*
X60068Y-28424D01*
X60049Y-28411D01*
X60027Y-28402D01*
X60004Y-28397D01*
X59981Y-28397D01*
X59540Y-28396D01*
X59510Y-28426D01*
X59510Y-29490D01*
X60082Y-29490D01*
X60112Y-29460D01*
X60112Y-29540D01*
X60082Y-29510D01*
X59510Y-29510D01*
X59510Y-30574D01*
X59540Y-30604D01*
X59981Y-30603D01*
X60004Y-30603D01*
X60027Y-30598D01*
X60049Y-30589D01*
X60068Y-30576D01*
X60084Y-30560D01*
X60097Y-30540D01*
X60106Y-30519D01*
X60111Y-30496D01*
X60112Y-29540D01*
X60112Y-38959D01*
X59520Y-38367D01*
X59520Y-34703D01*
X59520Y-34700D01*
X59518Y-34685D01*
X59515Y-34641D01*
X59514Y-34638D01*
X59497Y-34581D01*
X59496Y-34580D01*
X59496Y-34578D01*
X59490Y-34567D01*
X59490Y-30574D01*
X59490Y-29510D01*
X59490Y-29490D01*
X59490Y-28426D01*
X59460Y-28396D01*
X59019Y-28397D01*
X58996Y-28397D01*
X58973Y-28402D01*
X58951Y-28411D01*
X58932Y-28424D01*
X58916Y-28440D01*
X58903Y-28460D01*
X58894Y-28481D01*
X58889Y-28504D01*
X58888Y-29460D01*
X58918Y-29490D01*
X59490Y-29490D01*
X59490Y-29510D01*
X58918Y-29510D01*
X58888Y-29540D01*
X58889Y-30496D01*
X58894Y-30519D01*
X58903Y-30540D01*
X58916Y-30560D01*
X58932Y-30576D01*
X58951Y-30589D01*
X58973Y-30598D01*
X58996Y-30603D01*
X59019Y-30603D01*
X59460Y-30604D01*
X59490Y-30574D01*
X59490Y-34567D01*
X59480Y-34549D01*
X59469Y-34526D01*
X59467Y-34524D01*
X59467Y-34523D01*
X59457Y-34511D01*
X59429Y-34476D01*
X59427Y-34475D01*
X59426Y-34474D01*
X57732Y-32780D01*
X57729Y-32776D01*
X57726Y-32774D01*
X57683Y-32738D01*
X57683Y-32737D01*
X57683Y-32488D01*
X57675Y-32450D01*
X57660Y-32414D01*
X57639Y-32381D01*
X57611Y-32354D01*
X57579Y-32332D01*
X57543Y-32317D01*
X57504Y-32309D01*
X57465Y-32309D01*
X55496Y-32309D01*
X55458Y-32317D01*
X55422Y-32332D01*
X55389Y-32353D01*
X55362Y-32381D01*
X55340Y-32413D01*
X55325Y-32449D01*
X55317Y-32488D01*
X55317Y-32527D01*
X55317Y-33512D01*
X55325Y-33550D01*
X55340Y-33586D01*
X55361Y-33619D01*
X55389Y-33646D01*
X55421Y-33668D01*
X55457Y-33683D01*
X55496Y-33691D01*
X55535Y-33691D01*
X57504Y-33691D01*
X57542Y-33683D01*
X57578Y-33668D01*
X57611Y-33647D01*
X57638Y-33619D01*
X57649Y-33601D01*
X58880Y-34832D01*
X58880Y-35228D01*
X57932Y-34280D01*
X57929Y-34276D01*
X57926Y-34274D01*
X57881Y-34236D01*
X57879Y-34235D01*
X57878Y-34234D01*
X57826Y-34206D01*
X57823Y-34204D01*
X57767Y-34187D01*
X57764Y-34186D01*
X57722Y-34182D01*
X57704Y-34180D01*
X57701Y-34180D01*
X57700Y-34180D01*
X57683Y-34180D01*
X57683Y-33988D01*
X57675Y-33950D01*
X57660Y-33914D01*
X57639Y-33881D01*
X57611Y-33854D01*
X57579Y-33832D01*
X57543Y-33817D01*
X57504Y-33809D01*
X57465Y-33809D01*
X55496Y-33809D01*
X55458Y-33817D01*
X55422Y-33832D01*
X55389Y-33853D01*
X55362Y-33881D01*
X55340Y-33913D01*
X55325Y-33949D01*
X55317Y-33988D01*
X55317Y-34027D01*
X55317Y-35012D01*
X55325Y-35050D01*
X55340Y-35086D01*
X55361Y-35119D01*
X55389Y-35146D01*
X55421Y-35168D01*
X55457Y-35183D01*
X55496Y-35191D01*
X55535Y-35191D01*
X57504Y-35191D01*
X57542Y-35183D01*
X57578Y-35168D01*
X57611Y-35147D01*
X57638Y-35119D01*
X57660Y-35087D01*
X57675Y-35051D01*
X57683Y-35012D01*
X57683Y-34973D01*
X57683Y-34935D01*
X58380Y-35632D01*
X58380Y-36327D01*
X57832Y-35780D01*
X57829Y-35776D01*
X57826Y-35774D01*
X57781Y-35736D01*
X57779Y-35735D01*
X57778Y-35734D01*
X57726Y-35706D01*
X57723Y-35704D01*
X57683Y-35692D01*
X57683Y-35691D01*
X57683Y-35488D01*
X57675Y-35450D01*
X57660Y-35414D01*
X57639Y-35381D01*
X57611Y-35354D01*
X57579Y-35332D01*
X57543Y-35317D01*
X57504Y-35309D01*
X57465Y-35309D01*
X55496Y-35309D01*
X55458Y-35317D01*
X55422Y-35332D01*
X55389Y-35353D01*
X55362Y-35381D01*
X55340Y-35413D01*
X55325Y-35449D01*
X55317Y-35488D01*
X55317Y-35527D01*
X55317Y-36512D01*
X55325Y-36550D01*
X55340Y-36586D01*
X55361Y-36619D01*
X55389Y-36646D01*
X55421Y-36668D01*
X55457Y-36683D01*
X55496Y-36691D01*
X55535Y-36691D01*
X57504Y-36691D01*
X57542Y-36683D01*
X57578Y-36668D01*
X57611Y-36647D01*
X57638Y-36619D01*
X57660Y-36587D01*
X57675Y-36551D01*
X57678Y-36531D01*
X57880Y-36732D01*
X57880Y-38996D01*
X57880Y-39000D01*
X57881Y-39018D01*
X57885Y-39059D01*
X57886Y-39062D01*
X57903Y-39119D01*
X57904Y-39122D01*
X57919Y-39151D01*
X57931Y-39174D01*
X57932Y-39175D01*
X57933Y-39177D01*
X57955Y-39203D01*
X57971Y-39223D01*
X57973Y-39225D01*
X57974Y-39226D01*
X59677Y-40930D01*
X59482Y-40930D01*
X57832Y-39280D01*
X57829Y-39276D01*
X57826Y-39274D01*
X57781Y-39236D01*
X57779Y-39235D01*
X57778Y-39234D01*
X57726Y-39206D01*
X57723Y-39204D01*
X57683Y-39192D01*
X57683Y-39191D01*
X57683Y-38988D01*
X57675Y-38950D01*
X57660Y-38914D01*
X57639Y-38881D01*
X57611Y-38854D01*
X57579Y-38832D01*
X57543Y-38817D01*
X57504Y-38809D01*
X57465Y-38809D01*
X55496Y-38809D01*
X55458Y-38817D01*
X55422Y-38832D01*
X55389Y-38853D01*
X55362Y-38881D01*
X55340Y-38913D01*
X55325Y-38949D01*
X55317Y-38988D01*
X55317Y-39027D01*
X55317Y-40012D01*
X55325Y-40050D01*
X55340Y-40086D01*
X55361Y-40119D01*
X55389Y-40146D01*
X55421Y-40168D01*
X55457Y-40183D01*
X55496Y-40191D01*
X55535Y-40191D01*
X57504Y-40191D01*
X57542Y-40183D01*
X57578Y-40168D01*
X57611Y-40147D01*
X57638Y-40119D01*
X57660Y-40087D01*
X57675Y-40051D01*
X57679Y-40031D01*
X59077Y-41430D01*
X58882Y-41430D01*
X58232Y-40780D01*
X58229Y-40776D01*
X58226Y-40774D01*
X58181Y-40736D01*
X58179Y-40735D01*
X58178Y-40734D01*
X58126Y-40706D01*
X58123Y-40704D01*
X58067Y-40687D01*
X58064Y-40686D01*
X58022Y-40682D01*
X58004Y-40680D01*
X58001Y-40680D01*
X58000Y-40680D01*
X57683Y-40680D01*
X57683Y-40488D01*
X57675Y-40450D01*
X57660Y-40414D01*
X57639Y-40381D01*
X57611Y-40354D01*
X57579Y-40332D01*
X57543Y-40317D01*
X57504Y-40309D01*
X57465Y-40309D01*
X55496Y-40309D01*
X55458Y-40317D01*
X55422Y-40332D01*
X55389Y-40353D01*
X55362Y-40381D01*
X55340Y-40413D01*
X55325Y-40449D01*
X55317Y-40488D01*
X55317Y-40527D01*
X55317Y-41512D01*
X55325Y-41550D01*
X55340Y-41586D01*
X55361Y-41619D01*
X55389Y-41646D01*
X55421Y-41668D01*
X55457Y-41683D01*
X55496Y-41691D01*
X55535Y-41691D01*
X57504Y-41691D01*
X57542Y-41683D01*
X57578Y-41668D01*
X57611Y-41647D01*
X57638Y-41619D01*
X57660Y-41587D01*
X57675Y-41551D01*
X57683Y-41512D01*
X57683Y-41473D01*
X57683Y-41320D01*
X57867Y-41320D01*
X58520Y-41973D01*
X58521Y-41974D01*
X58523Y-41976D01*
X58539Y-41989D01*
X58569Y-42014D01*
X58571Y-42015D01*
X58624Y-42044D01*
X58626Y-42045D01*
X58642Y-42049D01*
X58683Y-42063D01*
X58686Y-42063D01*
X58746Y-42070D01*
X58750Y-42070D01*
X59677Y-42070D01*
X59567Y-42180D01*
X57683Y-42180D01*
X57683Y-41988D01*
X57675Y-41950D01*
X57660Y-41914D01*
X57639Y-41881D01*
X57611Y-41854D01*
X57579Y-41832D01*
X57543Y-41817D01*
X57504Y-41809D01*
X57465Y-41809D01*
X55496Y-41809D01*
X55458Y-41817D01*
X55422Y-41832D01*
X55389Y-41853D01*
X55362Y-41881D01*
X55340Y-41913D01*
X55325Y-41949D01*
X55317Y-41988D01*
X55317Y-42027D01*
X55317Y-43012D01*
X55325Y-43050D01*
X55340Y-43086D01*
X55361Y-43119D01*
X55389Y-43146D01*
X55421Y-43168D01*
X55457Y-43183D01*
X55496Y-43191D01*
X55535Y-43191D01*
X57504Y-43191D01*
X57542Y-43183D01*
X57578Y-43168D01*
X57611Y-43147D01*
X57638Y-43119D01*
X57660Y-43087D01*
X57675Y-43051D01*
X57683Y-43012D01*
X57683Y-42973D01*
X57683Y-42820D01*
X59696Y-42820D01*
X59700Y-42820D01*
X59718Y-42818D01*
X59759Y-42815D01*
X59762Y-42814D01*
X59819Y-42797D01*
X59819Y-42796D01*
X59822Y-42796D01*
X59851Y-42780D01*
X59874Y-42769D01*
X59875Y-42767D01*
X59877Y-42767D01*
X59903Y-42745D01*
X59923Y-42729D01*
X59925Y-42727D01*
X59926Y-42726D01*
X60082Y-42570D01*
X60177Y-42570D01*
X59480Y-43267D01*
X59476Y-43271D01*
X59436Y-43319D01*
X59435Y-43320D01*
X59434Y-43322D01*
X59404Y-43377D01*
X59386Y-43436D01*
X59382Y-43478D01*
X59380Y-43496D01*
X59380Y-43499D01*
X59380Y-43500D01*
X59380Y-45067D01*
X58767Y-45680D01*
X57683Y-45680D01*
X57683Y-45488D01*
X57675Y-45450D01*
X57660Y-45414D01*
X57639Y-45381D01*
X57611Y-45354D01*
X57579Y-45332D01*
X57543Y-45317D01*
X57504Y-45309D01*
X57465Y-45309D01*
X55496Y-45309D01*
X55458Y-45317D01*
X55422Y-45332D01*
X55389Y-45353D01*
X55362Y-45381D01*
X55340Y-45413D01*
X55325Y-45449D01*
X55317Y-45488D01*
X55317Y-45527D01*
X55317Y-46512D01*
X55325Y-46550D01*
X55340Y-46586D01*
X55361Y-46619D01*
X55389Y-46646D01*
X55421Y-46668D01*
X55457Y-46683D01*
X55496Y-46691D01*
X55535Y-46691D01*
X57504Y-46691D01*
X57542Y-46683D01*
X57578Y-46668D01*
X57611Y-46647D01*
X57638Y-46619D01*
X57660Y-46587D01*
X57675Y-46551D01*
X57683Y-46512D01*
X57683Y-46473D01*
X57683Y-46320D01*
X58896Y-46320D01*
X58900Y-46320D01*
X58918Y-46318D01*
X58959Y-46315D01*
X58962Y-46314D01*
X59019Y-46297D01*
X59019Y-46296D01*
X59022Y-46296D01*
X59051Y-46280D01*
X59074Y-46269D01*
X59075Y-46267D01*
X59077Y-46267D01*
X59103Y-46245D01*
X59123Y-46229D01*
X59125Y-46227D01*
X59126Y-46226D01*
X59923Y-45429D01*
X59924Y-45429D01*
X59924Y-45428D01*
X59926Y-45427D01*
X59942Y-45407D01*
X59964Y-45381D01*
X59964Y-45379D01*
X59966Y-45378D01*
X59976Y-45358D01*
X59994Y-45326D01*
X59994Y-45323D01*
X59995Y-45323D01*
X60013Y-45267D01*
X60014Y-45264D01*
X60015Y-45242D01*
X60020Y-45204D01*
X60020Y-45200D01*
X60020Y-43632D01*
X60582Y-43070D01*
X60978Y-43070D01*
X60380Y-43667D01*
X60376Y-43671D01*
X60336Y-43719D01*
X60335Y-43720D01*
X60334Y-43722D01*
X60304Y-43777D01*
X60286Y-43836D01*
X60282Y-43878D01*
X60280Y-43896D01*
X60280Y-43899D01*
X60280Y-43900D01*
X60280Y-45867D01*
X58967Y-47180D01*
X57683Y-47180D01*
X57683Y-46988D01*
X57675Y-46950D01*
X57660Y-46914D01*
X57639Y-46881D01*
X57611Y-46854D01*
X57579Y-46832D01*
X57543Y-46817D01*
X57504Y-46809D01*
X57465Y-46809D01*
X55496Y-46809D01*
X55458Y-46817D01*
X55422Y-46832D01*
X55389Y-46853D01*
X55362Y-46881D01*
X55340Y-46913D01*
X55325Y-46949D01*
X55317Y-46988D01*
X55317Y-47027D01*
X55317Y-48012D01*
X55325Y-48050D01*
X55340Y-48086D01*
X55361Y-48119D01*
X55389Y-48146D01*
X55421Y-48168D01*
X55457Y-48183D01*
X55496Y-48191D01*
X55535Y-48191D01*
X57504Y-48191D01*
X57542Y-48183D01*
X57578Y-48168D01*
X57611Y-48147D01*
X57638Y-48119D01*
X57660Y-48087D01*
X57675Y-48051D01*
X57683Y-48012D01*
X57683Y-47973D01*
X57683Y-47820D01*
X59096Y-47820D01*
X59100Y-47820D01*
X59118Y-47818D01*
X59159Y-47815D01*
X59162Y-47814D01*
X59219Y-47797D01*
X59219Y-47796D01*
X59222Y-47796D01*
X59251Y-47780D01*
X59274Y-47769D01*
X59275Y-47767D01*
X59277Y-47767D01*
X59303Y-47745D01*
X59323Y-47729D01*
X59325Y-47727D01*
X59326Y-47726D01*
X60823Y-46229D01*
X60824Y-46229D01*
X60824Y-46228D01*
X60826Y-46227D01*
X60842Y-46207D01*
X60864Y-46181D01*
X60864Y-46179D01*
X60866Y-46178D01*
X60876Y-46158D01*
X60894Y-46126D01*
X60894Y-46123D01*
X60895Y-46123D01*
X60913Y-46067D01*
X60914Y-46064D01*
X60915Y-46042D01*
X60920Y-46004D01*
X60920Y-46000D01*
X60920Y-44032D01*
X61251Y-43701D01*
X61251Y-43870D01*
X61259Y-43908D01*
X61274Y-43944D01*
X61295Y-43977D01*
X61323Y-44004D01*
X61355Y-44026D01*
X61380Y-44036D01*
X61380Y-46968D01*
X59668Y-48680D01*
X57683Y-48680D01*
X57683Y-48488D01*
X57675Y-48450D01*
X57660Y-48414D01*
X57639Y-48381D01*
X57611Y-48354D01*
X57579Y-48332D01*
X57543Y-48317D01*
X57504Y-48309D01*
X57465Y-48309D01*
X55496Y-48309D01*
X55458Y-48317D01*
X55422Y-48332D01*
X55389Y-48353D01*
X55362Y-48381D01*
X55340Y-48413D01*
X55325Y-48449D01*
X55317Y-48488D01*
X55317Y-48527D01*
X55317Y-49512D01*
X55325Y-49550D01*
X55340Y-49586D01*
X55361Y-49619D01*
X55389Y-49646D01*
X55421Y-49668D01*
X55449Y-49680D01*
X55132Y-49680D01*
X54320Y-48868D01*
X54320Y-44820D01*
X55317Y-44820D01*
X55317Y-45012D01*
X55325Y-45050D01*
X55340Y-45086D01*
X55361Y-45119D01*
X55389Y-45146D01*
X55421Y-45168D01*
X55457Y-45183D01*
X55496Y-45191D01*
X55535Y-45191D01*
X57504Y-45191D01*
X57542Y-45183D01*
X57578Y-45168D01*
X57611Y-45147D01*
X57638Y-45119D01*
X57660Y-45087D01*
X57675Y-45051D01*
X57683Y-45012D01*
X57683Y-44973D01*
X57683Y-43988D01*
X57675Y-43950D01*
X57660Y-43914D01*
X57639Y-43881D01*
X57611Y-43854D01*
X57579Y-43832D01*
X57543Y-43817D01*
X57504Y-43809D01*
X57465Y-43809D01*
X55496Y-43809D01*
X55458Y-43817D01*
X55422Y-43832D01*
X55389Y-43853D01*
X55362Y-43881D01*
X55340Y-43913D01*
X55325Y-43949D01*
X55317Y-43988D01*
X55317Y-44027D01*
X55317Y-44180D01*
X54320Y-44180D01*
X54320Y-38320D01*
X55317Y-38320D01*
X55317Y-38512D01*
X55325Y-38550D01*
X55340Y-38586D01*
X55361Y-38619D01*
X55389Y-38646D01*
X55421Y-38668D01*
X55457Y-38683D01*
X55496Y-38691D01*
X55535Y-38691D01*
X57504Y-38691D01*
X57542Y-38683D01*
X57578Y-38668D01*
X57611Y-38647D01*
X57638Y-38619D01*
X57660Y-38587D01*
X57675Y-38551D01*
X57683Y-38512D01*
X57683Y-38473D01*
X57683Y-37488D01*
X57675Y-37450D01*
X57660Y-37414D01*
X57639Y-37381D01*
X57611Y-37354D01*
X57579Y-37332D01*
X57543Y-37317D01*
X57504Y-37309D01*
X57465Y-37309D01*
X55496Y-37309D01*
X55458Y-37317D01*
X55422Y-37332D01*
X55389Y-37353D01*
X55362Y-37381D01*
X55340Y-37413D01*
X55325Y-37449D01*
X55317Y-37488D01*
X55317Y-37527D01*
X55317Y-37680D01*
X54320Y-37680D01*
X54320Y-32632D01*
X55132Y-31820D01*
X55317Y-31820D01*
X55317Y-32012D01*
X55325Y-32050D01*
X55340Y-32086D01*
X55361Y-32119D01*
X55389Y-32146D01*
X55421Y-32168D01*
X55457Y-32183D01*
X55496Y-32191D01*
X55535Y-32191D01*
X57504Y-32191D01*
X57542Y-32183D01*
X57578Y-32168D01*
X57611Y-32147D01*
X57638Y-32119D01*
X57660Y-32087D01*
X57675Y-32051D01*
X57683Y-32012D01*
X57683Y-31973D01*
X57683Y-30988D01*
X57675Y-30950D01*
X57660Y-30914D01*
X57639Y-30881D01*
X57611Y-30854D01*
X57579Y-30832D01*
X57543Y-30817D01*
X57504Y-30809D01*
X57465Y-30809D01*
X55496Y-30809D01*
X55458Y-30817D01*
X55422Y-30832D01*
X55389Y-30853D01*
X55362Y-30881D01*
X55340Y-30913D01*
X55325Y-30949D01*
X55317Y-30988D01*
X55317Y-31027D01*
X55317Y-31180D01*
X55003Y-31180D01*
X55000Y-31180D01*
X54985Y-31181D01*
X54941Y-31185D01*
X54881Y-31203D01*
X54880Y-31203D01*
X54878Y-31204D01*
X54849Y-31219D01*
X54826Y-31231D01*
X54824Y-31232D01*
X54823Y-31233D01*
X54811Y-31243D01*
X54776Y-31271D01*
X54774Y-31274D01*
X53780Y-32267D01*
X53776Y-32271D01*
X53736Y-32319D01*
X53735Y-32320D01*
X53734Y-32322D01*
X53704Y-32377D01*
X53695Y-32406D01*
X53695Y-28195D01*
X62497Y-28195D01*
X62500Y-28195D01*
X73305Y-28195D01*
X73305Y-30407D01*
M02*
