G04 (created by PCBNEW-RS274X (2012-jan-04)-stable) date Mon 13 Aug 2012 10:18:50 PM CEST*
G01*
G70*
G90*
%MOIN*%
G04 Gerber Fmt 3.4, Leading zero omitted, Abs format*
%FSLAX34Y34*%
G04 APERTURE LIST*
%ADD10C,0.006000*%
%ADD11C,0.012000*%
%ADD12C,0.005000*%
G04 APERTURE END LIST*
G54D10*
G54D11*
X64500Y-44000D02*
X62000Y-44000D01*
X62000Y-44000D02*
X62000Y-37000D01*
X62000Y-37000D02*
X65000Y-37000D01*
X65000Y-37000D02*
X65000Y-44000D01*
X65000Y-44000D02*
X64500Y-44000D01*
X63750Y-37000D02*
X63750Y-37500D01*
X63750Y-37500D02*
X63250Y-37500D01*
X63250Y-37500D02*
X63250Y-37000D01*
G54D12*
X60550Y-36500D02*
X61450Y-36500D01*
X61450Y-36500D02*
X61450Y-35850D01*
X60550Y-35150D02*
X60550Y-34500D01*
X60550Y-34500D02*
X61450Y-34500D01*
X61450Y-34500D02*
X61450Y-35150D01*
X60550Y-35850D02*
X60550Y-36500D01*
G54D10*
X63641Y-40957D02*
X64127Y-40957D01*
X64184Y-40929D01*
X64212Y-40900D01*
X64241Y-40843D01*
X64241Y-40729D01*
X64212Y-40671D01*
X64184Y-40643D01*
X64127Y-40614D01*
X63641Y-40614D01*
X64241Y-40014D02*
X64241Y-40357D01*
X64241Y-40185D02*
X63641Y-40185D01*
X63727Y-40242D01*
X63784Y-40300D01*
X63812Y-40357D01*
X62643Y-42184D02*
X63243Y-42041D01*
X62814Y-41927D01*
X63243Y-41813D01*
X62643Y-41670D01*
X63214Y-41470D02*
X63243Y-41384D01*
X63243Y-41241D01*
X63214Y-41184D01*
X63186Y-41155D01*
X63129Y-41127D01*
X63071Y-41127D01*
X63014Y-41155D01*
X62986Y-41184D01*
X62957Y-41241D01*
X62929Y-41355D01*
X62900Y-41413D01*
X62871Y-41441D01*
X62814Y-41470D01*
X62757Y-41470D01*
X62700Y-41441D01*
X62671Y-41413D01*
X62643Y-41355D01*
X62643Y-41213D01*
X62671Y-41127D01*
X62700Y-40899D02*
X62671Y-40870D01*
X62643Y-40813D01*
X62643Y-40670D01*
X62671Y-40613D01*
X62700Y-40584D01*
X62757Y-40556D01*
X62814Y-40556D01*
X62900Y-40584D01*
X63243Y-40927D01*
X63243Y-40556D01*
X62900Y-40213D02*
X62871Y-40271D01*
X62843Y-40299D01*
X62786Y-40328D01*
X62757Y-40328D01*
X62700Y-40299D01*
X62671Y-40271D01*
X62643Y-40213D01*
X62643Y-40099D01*
X62671Y-40042D01*
X62700Y-40013D01*
X62757Y-39985D01*
X62786Y-39985D01*
X62843Y-40013D01*
X62871Y-40042D01*
X62900Y-40099D01*
X62900Y-40213D01*
X62929Y-40271D01*
X62957Y-40299D01*
X63014Y-40328D01*
X63129Y-40328D01*
X63186Y-40299D01*
X63214Y-40271D01*
X63243Y-40213D01*
X63243Y-40099D01*
X63214Y-40042D01*
X63186Y-40013D01*
X63129Y-39985D01*
X63014Y-39985D01*
X62957Y-40013D01*
X62929Y-40042D01*
X62900Y-40099D01*
X62643Y-39614D02*
X62643Y-39557D01*
X62671Y-39500D01*
X62700Y-39471D01*
X62757Y-39442D01*
X62871Y-39414D01*
X63014Y-39414D01*
X63129Y-39442D01*
X63186Y-39471D01*
X63214Y-39500D01*
X63243Y-39557D01*
X63243Y-39614D01*
X63214Y-39671D01*
X63186Y-39700D01*
X63129Y-39728D01*
X63014Y-39757D01*
X62871Y-39757D01*
X62757Y-39728D01*
X62700Y-39700D01*
X62671Y-39671D01*
X62643Y-39614D01*
X62643Y-39214D02*
X62643Y-38843D01*
X62871Y-39043D01*
X62871Y-38957D01*
X62900Y-38900D01*
X62929Y-38871D01*
X62986Y-38843D01*
X63129Y-38843D01*
X63186Y-38871D01*
X63214Y-38900D01*
X63243Y-38957D01*
X63243Y-39129D01*
X63214Y-39186D01*
X63186Y-39214D01*
G54D11*
X66543Y-33643D02*
X67143Y-33443D01*
X66543Y-33243D01*
X67086Y-32700D02*
X67114Y-32729D01*
X67143Y-32815D01*
X67143Y-32872D01*
X67114Y-32957D01*
X67057Y-33015D01*
X67000Y-33043D01*
X66886Y-33072D01*
X66800Y-33072D01*
X66686Y-33043D01*
X66629Y-33015D01*
X66571Y-32957D01*
X66543Y-32872D01*
X66543Y-32815D01*
X66571Y-32729D01*
X66600Y-32700D01*
X67086Y-32100D02*
X67114Y-32129D01*
X67143Y-32215D01*
X67143Y-32272D01*
X67114Y-32357D01*
X67057Y-32415D01*
X67000Y-32443D01*
X66886Y-32472D01*
X66800Y-32472D01*
X66686Y-32443D01*
X66629Y-32415D01*
X66571Y-32357D01*
X66543Y-32272D01*
X66543Y-32215D01*
X66571Y-32129D01*
X66600Y-32100D01*
X67200Y-31986D02*
X67200Y-31529D01*
X67143Y-31386D02*
X66743Y-31386D01*
X66543Y-31386D02*
X66571Y-31415D01*
X66600Y-31386D01*
X66571Y-31358D01*
X66543Y-31386D01*
X66600Y-31386D01*
X66743Y-31100D02*
X67143Y-31100D01*
X66800Y-31100D02*
X66771Y-31072D01*
X66743Y-31014D01*
X66743Y-30929D01*
X66771Y-30872D01*
X66829Y-30843D01*
X67143Y-30843D01*
X67558Y-31329D02*
X67644Y-31357D01*
X67672Y-31386D01*
X67701Y-31443D01*
X67701Y-31529D01*
X67672Y-31586D01*
X67644Y-31614D01*
X67586Y-31643D01*
X67358Y-31643D01*
X67358Y-31043D01*
X67558Y-31043D01*
X67615Y-31071D01*
X67644Y-31100D01*
X67672Y-31157D01*
X67672Y-31214D01*
X67644Y-31271D01*
X67615Y-31300D01*
X67558Y-31329D01*
X67358Y-31329D01*
X68215Y-31043D02*
X68101Y-31043D01*
X68044Y-31071D01*
X68015Y-31100D01*
X67958Y-31186D01*
X67929Y-31300D01*
X67929Y-31529D01*
X67958Y-31586D01*
X67986Y-31614D01*
X68044Y-31643D01*
X68158Y-31643D01*
X68215Y-31614D01*
X68244Y-31586D01*
X68272Y-31529D01*
X68272Y-31386D01*
X68244Y-31329D01*
X68215Y-31300D01*
X68158Y-31271D01*
X68044Y-31271D01*
X67986Y-31300D01*
X67958Y-31329D01*
X67929Y-31386D01*
X67672Y-32571D02*
X67615Y-32543D01*
X67529Y-32543D01*
X67444Y-32571D01*
X67386Y-32629D01*
X67358Y-32686D01*
X67329Y-32800D01*
X67329Y-32886D01*
X67358Y-33000D01*
X67386Y-33057D01*
X67444Y-33114D01*
X67529Y-33143D01*
X67586Y-33143D01*
X67672Y-33114D01*
X67701Y-33086D01*
X67701Y-32886D01*
X67586Y-32886D01*
X68215Y-32543D02*
X68101Y-32543D01*
X68044Y-32571D01*
X68015Y-32600D01*
X67958Y-32686D01*
X67929Y-32800D01*
X67929Y-33029D01*
X67958Y-33086D01*
X67986Y-33114D01*
X68044Y-33143D01*
X68158Y-33143D01*
X68215Y-33114D01*
X68244Y-33086D01*
X68272Y-33029D01*
X68272Y-32886D01*
X68244Y-32829D01*
X68215Y-32800D01*
X68158Y-32771D01*
X68044Y-32771D01*
X67986Y-32800D01*
X67958Y-32829D01*
X67929Y-32886D01*
X67701Y-34643D02*
X67501Y-34357D01*
X67358Y-34643D02*
X67358Y-34043D01*
X67586Y-34043D01*
X67644Y-34071D01*
X67672Y-34100D01*
X67701Y-34157D01*
X67701Y-34243D01*
X67672Y-34300D01*
X67644Y-34329D01*
X67586Y-34357D01*
X67358Y-34357D01*
X68215Y-34043D02*
X68101Y-34043D01*
X68044Y-34071D01*
X68015Y-34100D01*
X67958Y-34186D01*
X67929Y-34300D01*
X67929Y-34529D01*
X67958Y-34586D01*
X67986Y-34614D01*
X68044Y-34643D01*
X68158Y-34643D01*
X68215Y-34614D01*
X68244Y-34586D01*
X68272Y-34529D01*
X68272Y-34386D01*
X68244Y-34329D01*
X68215Y-34300D01*
X68158Y-34271D01*
X68044Y-34271D01*
X67986Y-34300D01*
X67958Y-34329D01*
X67929Y-34386D01*
X67558Y-37829D02*
X67644Y-37857D01*
X67672Y-37886D01*
X67701Y-37943D01*
X67701Y-38029D01*
X67672Y-38086D01*
X67644Y-38114D01*
X67586Y-38143D01*
X67358Y-38143D01*
X67358Y-37543D01*
X67558Y-37543D01*
X67615Y-37571D01*
X67644Y-37600D01*
X67672Y-37657D01*
X67672Y-37714D01*
X67644Y-37771D01*
X67615Y-37800D01*
X67558Y-37829D01*
X67358Y-37829D01*
X68244Y-37543D02*
X67958Y-37543D01*
X67929Y-37829D01*
X67958Y-37800D01*
X68015Y-37771D01*
X68158Y-37771D01*
X68215Y-37800D01*
X68244Y-37829D01*
X68272Y-37886D01*
X68272Y-38029D01*
X68244Y-38086D01*
X68215Y-38114D01*
X68158Y-38143D01*
X68015Y-38143D01*
X67958Y-38114D01*
X67929Y-38086D01*
X67672Y-39071D02*
X67615Y-39043D01*
X67529Y-39043D01*
X67444Y-39071D01*
X67386Y-39129D01*
X67358Y-39186D01*
X67329Y-39300D01*
X67329Y-39386D01*
X67358Y-39500D01*
X67386Y-39557D01*
X67444Y-39614D01*
X67529Y-39643D01*
X67586Y-39643D01*
X67672Y-39614D01*
X67701Y-39586D01*
X67701Y-39386D01*
X67586Y-39386D01*
X68244Y-39043D02*
X67958Y-39043D01*
X67929Y-39329D01*
X67958Y-39300D01*
X68015Y-39271D01*
X68158Y-39271D01*
X68215Y-39300D01*
X68244Y-39329D01*
X68272Y-39386D01*
X68272Y-39529D01*
X68244Y-39586D01*
X68215Y-39614D01*
X68158Y-39643D01*
X68015Y-39643D01*
X67958Y-39614D01*
X67929Y-39586D01*
X67701Y-41143D02*
X67501Y-40857D01*
X67358Y-41143D02*
X67358Y-40543D01*
X67586Y-40543D01*
X67644Y-40571D01*
X67672Y-40600D01*
X67701Y-40657D01*
X67701Y-40743D01*
X67672Y-40800D01*
X67644Y-40829D01*
X67586Y-40857D01*
X67358Y-40857D01*
X68244Y-40543D02*
X67958Y-40543D01*
X67929Y-40829D01*
X67958Y-40800D01*
X68015Y-40771D01*
X68158Y-40771D01*
X68215Y-40800D01*
X68244Y-40829D01*
X68272Y-40886D01*
X68272Y-41029D01*
X68244Y-41086D01*
X68215Y-41114D01*
X68158Y-41143D01*
X68015Y-41143D01*
X67958Y-41114D01*
X67929Y-41086D01*
X67558Y-44329D02*
X67644Y-44357D01*
X67672Y-44386D01*
X67701Y-44443D01*
X67701Y-44529D01*
X67672Y-44586D01*
X67644Y-44614D01*
X67586Y-44643D01*
X67358Y-44643D01*
X67358Y-44043D01*
X67558Y-44043D01*
X67615Y-44071D01*
X67644Y-44100D01*
X67672Y-44157D01*
X67672Y-44214D01*
X67644Y-44271D01*
X67615Y-44300D01*
X67558Y-44329D01*
X67358Y-44329D01*
X68215Y-44243D02*
X68215Y-44643D01*
X68072Y-44014D02*
X67929Y-44443D01*
X68301Y-44443D01*
X67672Y-45571D02*
X67615Y-45543D01*
X67529Y-45543D01*
X67444Y-45571D01*
X67386Y-45629D01*
X67358Y-45686D01*
X67329Y-45800D01*
X67329Y-45886D01*
X67358Y-46000D01*
X67386Y-46057D01*
X67444Y-46114D01*
X67529Y-46143D01*
X67586Y-46143D01*
X67672Y-46114D01*
X67701Y-46086D01*
X67701Y-45886D01*
X67586Y-45886D01*
X68215Y-45743D02*
X68215Y-46143D01*
X68072Y-45514D02*
X67929Y-45943D01*
X68301Y-45943D01*
X67701Y-47643D02*
X67501Y-47357D01*
X67358Y-47643D02*
X67358Y-47043D01*
X67586Y-47043D01*
X67644Y-47071D01*
X67672Y-47100D01*
X67701Y-47157D01*
X67701Y-47243D01*
X67672Y-47300D01*
X67644Y-47329D01*
X67586Y-47357D01*
X67358Y-47357D01*
X68215Y-47243D02*
X68215Y-47643D01*
X68072Y-47014D02*
X67929Y-47443D01*
X68301Y-47443D01*
X58958Y-49029D02*
X59044Y-49057D01*
X59072Y-49086D01*
X59101Y-49143D01*
X59101Y-49229D01*
X59072Y-49286D01*
X59044Y-49314D01*
X58986Y-49343D01*
X58758Y-49343D01*
X58758Y-48743D01*
X58958Y-48743D01*
X59015Y-48771D01*
X59044Y-48800D01*
X59072Y-48857D01*
X59072Y-48914D01*
X59044Y-48971D01*
X59015Y-49000D01*
X58958Y-49029D01*
X58758Y-49029D01*
X59301Y-48743D02*
X59672Y-48743D01*
X59472Y-48971D01*
X59558Y-48971D01*
X59615Y-49000D01*
X59644Y-49029D01*
X59672Y-49086D01*
X59672Y-49229D01*
X59644Y-49286D01*
X59615Y-49314D01*
X59558Y-49343D01*
X59386Y-49343D01*
X59329Y-49314D01*
X59301Y-49286D01*
X59072Y-47271D02*
X59015Y-47243D01*
X58929Y-47243D01*
X58844Y-47271D01*
X58786Y-47329D01*
X58758Y-47386D01*
X58729Y-47500D01*
X58729Y-47586D01*
X58758Y-47700D01*
X58786Y-47757D01*
X58844Y-47814D01*
X58929Y-47843D01*
X58986Y-47843D01*
X59072Y-47814D01*
X59101Y-47786D01*
X59101Y-47586D01*
X58986Y-47586D01*
X59301Y-47243D02*
X59672Y-47243D01*
X59472Y-47471D01*
X59558Y-47471D01*
X59615Y-47500D01*
X59644Y-47529D01*
X59672Y-47586D01*
X59672Y-47729D01*
X59644Y-47786D01*
X59615Y-47814D01*
X59558Y-47843D01*
X59386Y-47843D01*
X59329Y-47814D01*
X59301Y-47786D01*
X59101Y-46343D02*
X58901Y-46057D01*
X58758Y-46343D02*
X58758Y-45743D01*
X58986Y-45743D01*
X59044Y-45771D01*
X59072Y-45800D01*
X59101Y-45857D01*
X59101Y-45943D01*
X59072Y-46000D01*
X59044Y-46029D01*
X58986Y-46057D01*
X58758Y-46057D01*
X59301Y-45743D02*
X59672Y-45743D01*
X59472Y-45971D01*
X59558Y-45971D01*
X59615Y-46000D01*
X59644Y-46029D01*
X59672Y-46086D01*
X59672Y-46229D01*
X59644Y-46286D01*
X59615Y-46314D01*
X59558Y-46343D01*
X59386Y-46343D01*
X59329Y-46314D01*
X59301Y-46286D01*
X58958Y-42529D02*
X59044Y-42557D01*
X59072Y-42586D01*
X59101Y-42643D01*
X59101Y-42729D01*
X59072Y-42786D01*
X59044Y-42814D01*
X58986Y-42843D01*
X58758Y-42843D01*
X58758Y-42243D01*
X58958Y-42243D01*
X59015Y-42271D01*
X59044Y-42300D01*
X59072Y-42357D01*
X59072Y-42414D01*
X59044Y-42471D01*
X59015Y-42500D01*
X58958Y-42529D01*
X58758Y-42529D01*
X59329Y-42300D02*
X59358Y-42271D01*
X59415Y-42243D01*
X59558Y-42243D01*
X59615Y-42271D01*
X59644Y-42300D01*
X59672Y-42357D01*
X59672Y-42414D01*
X59644Y-42500D01*
X59301Y-42843D01*
X59672Y-42843D01*
X59072Y-40771D02*
X59015Y-40743D01*
X58929Y-40743D01*
X58844Y-40771D01*
X58786Y-40829D01*
X58758Y-40886D01*
X58729Y-41000D01*
X58729Y-41086D01*
X58758Y-41200D01*
X58786Y-41257D01*
X58844Y-41314D01*
X58929Y-41343D01*
X58986Y-41343D01*
X59072Y-41314D01*
X59101Y-41286D01*
X59101Y-41086D01*
X58986Y-41086D01*
X59329Y-40800D02*
X59358Y-40771D01*
X59415Y-40743D01*
X59558Y-40743D01*
X59615Y-40771D01*
X59644Y-40800D01*
X59672Y-40857D01*
X59672Y-40914D01*
X59644Y-41000D01*
X59301Y-41343D01*
X59672Y-41343D01*
X59101Y-39843D02*
X58901Y-39557D01*
X58758Y-39843D02*
X58758Y-39243D01*
X58986Y-39243D01*
X59044Y-39271D01*
X59072Y-39300D01*
X59101Y-39357D01*
X59101Y-39443D01*
X59072Y-39500D01*
X59044Y-39529D01*
X58986Y-39557D01*
X58758Y-39557D01*
X59329Y-39300D02*
X59358Y-39271D01*
X59415Y-39243D01*
X59558Y-39243D01*
X59615Y-39271D01*
X59644Y-39300D01*
X59672Y-39357D01*
X59672Y-39414D01*
X59644Y-39500D01*
X59301Y-39843D01*
X59672Y-39843D01*
X58958Y-36029D02*
X59044Y-36057D01*
X59072Y-36086D01*
X59101Y-36143D01*
X59101Y-36229D01*
X59072Y-36286D01*
X59044Y-36314D01*
X58986Y-36343D01*
X58758Y-36343D01*
X58758Y-35743D01*
X58958Y-35743D01*
X59015Y-35771D01*
X59044Y-35800D01*
X59072Y-35857D01*
X59072Y-35914D01*
X59044Y-35971D01*
X59015Y-36000D01*
X58958Y-36029D01*
X58758Y-36029D01*
X59672Y-36343D02*
X59329Y-36343D01*
X59501Y-36343D02*
X59501Y-35743D01*
X59444Y-35829D01*
X59386Y-35886D01*
X59329Y-35914D01*
X59072Y-34271D02*
X59015Y-34243D01*
X58929Y-34243D01*
X58844Y-34271D01*
X58786Y-34329D01*
X58758Y-34386D01*
X58729Y-34500D01*
X58729Y-34586D01*
X58758Y-34700D01*
X58786Y-34757D01*
X58844Y-34814D01*
X58929Y-34843D01*
X58986Y-34843D01*
X59072Y-34814D01*
X59101Y-34786D01*
X59101Y-34586D01*
X58986Y-34586D01*
X59672Y-34843D02*
X59329Y-34843D01*
X59501Y-34843D02*
X59501Y-34243D01*
X59444Y-34329D01*
X59386Y-34386D01*
X59329Y-34414D01*
X59101Y-33343D02*
X58901Y-33057D01*
X58758Y-33343D02*
X58758Y-32743D01*
X58986Y-32743D01*
X59044Y-32771D01*
X59072Y-32800D01*
X59101Y-32857D01*
X59101Y-32943D01*
X59072Y-33000D01*
X59044Y-33029D01*
X58986Y-33057D01*
X58758Y-33057D01*
X59672Y-33343D02*
X59329Y-33343D01*
X59501Y-33343D02*
X59501Y-32743D01*
X59444Y-32829D01*
X59386Y-32886D01*
X59329Y-32914D01*
X66715Y-35543D02*
X66915Y-36143D01*
X67115Y-35543D01*
X67658Y-36086D02*
X67629Y-36114D01*
X67543Y-36143D01*
X67486Y-36143D01*
X67401Y-36114D01*
X67343Y-36057D01*
X67315Y-36000D01*
X67286Y-35886D01*
X67286Y-35800D01*
X67315Y-35686D01*
X67343Y-35629D01*
X67401Y-35571D01*
X67486Y-35543D01*
X67543Y-35543D01*
X67629Y-35571D01*
X67658Y-35600D01*
X68258Y-36086D02*
X68229Y-36114D01*
X68143Y-36143D01*
X68086Y-36143D01*
X68001Y-36114D01*
X67943Y-36057D01*
X67915Y-36000D01*
X67886Y-35886D01*
X67886Y-35800D01*
X67915Y-35686D01*
X67943Y-35629D01*
X68001Y-35571D01*
X68086Y-35543D01*
X68143Y-35543D01*
X68229Y-35571D01*
X68258Y-35600D01*
X68772Y-35543D02*
X68658Y-35543D01*
X68601Y-35571D01*
X68572Y-35600D01*
X68515Y-35686D01*
X68486Y-35800D01*
X68486Y-36029D01*
X68515Y-36086D01*
X68543Y-36114D01*
X68601Y-36143D01*
X68715Y-36143D01*
X68772Y-36114D01*
X68801Y-36086D01*
X68829Y-36029D01*
X68829Y-35886D01*
X68801Y-35829D01*
X68772Y-35800D01*
X68715Y-35771D01*
X68601Y-35771D01*
X68543Y-35800D01*
X68515Y-35829D01*
X68486Y-35886D01*
X66715Y-42043D02*
X66915Y-42643D01*
X67115Y-42043D01*
X67658Y-42586D02*
X67629Y-42614D01*
X67543Y-42643D01*
X67486Y-42643D01*
X67401Y-42614D01*
X67343Y-42557D01*
X67315Y-42500D01*
X67286Y-42386D01*
X67286Y-42300D01*
X67315Y-42186D01*
X67343Y-42129D01*
X67401Y-42071D01*
X67486Y-42043D01*
X67543Y-42043D01*
X67629Y-42071D01*
X67658Y-42100D01*
X68258Y-42586D02*
X68229Y-42614D01*
X68143Y-42643D01*
X68086Y-42643D01*
X68001Y-42614D01*
X67943Y-42557D01*
X67915Y-42500D01*
X67886Y-42386D01*
X67886Y-42300D01*
X67915Y-42186D01*
X67943Y-42129D01*
X68001Y-42071D01*
X68086Y-42043D01*
X68143Y-42043D01*
X68229Y-42071D01*
X68258Y-42100D01*
X68801Y-42043D02*
X68515Y-42043D01*
X68486Y-42329D01*
X68515Y-42300D01*
X68572Y-42271D01*
X68715Y-42271D01*
X68772Y-42300D01*
X68801Y-42329D01*
X68829Y-42386D01*
X68829Y-42529D01*
X68801Y-42586D01*
X68772Y-42614D01*
X68715Y-42643D01*
X68572Y-42643D01*
X68515Y-42614D01*
X68486Y-42586D01*
X66715Y-48543D02*
X66915Y-49143D01*
X67115Y-48543D01*
X67658Y-49086D02*
X67629Y-49114D01*
X67543Y-49143D01*
X67486Y-49143D01*
X67401Y-49114D01*
X67343Y-49057D01*
X67315Y-49000D01*
X67286Y-48886D01*
X67286Y-48800D01*
X67315Y-48686D01*
X67343Y-48629D01*
X67401Y-48571D01*
X67486Y-48543D01*
X67543Y-48543D01*
X67629Y-48571D01*
X67658Y-48600D01*
X68258Y-49086D02*
X68229Y-49114D01*
X68143Y-49143D01*
X68086Y-49143D01*
X68001Y-49114D01*
X67943Y-49057D01*
X67915Y-49000D01*
X67886Y-48886D01*
X67886Y-48800D01*
X67915Y-48686D01*
X67943Y-48629D01*
X68001Y-48571D01*
X68086Y-48543D01*
X68143Y-48543D01*
X68229Y-48571D01*
X68258Y-48600D01*
X68772Y-48743D02*
X68772Y-49143D01*
X68629Y-48514D02*
X68486Y-48943D01*
X68858Y-48943D01*
X58115Y-44243D02*
X58315Y-44843D01*
X58515Y-44243D01*
X59058Y-44786D02*
X59029Y-44814D01*
X58943Y-44843D01*
X58886Y-44843D01*
X58801Y-44814D01*
X58743Y-44757D01*
X58715Y-44700D01*
X58686Y-44586D01*
X58686Y-44500D01*
X58715Y-44386D01*
X58743Y-44329D01*
X58801Y-44271D01*
X58886Y-44243D01*
X58943Y-44243D01*
X59029Y-44271D01*
X59058Y-44300D01*
X59658Y-44786D02*
X59629Y-44814D01*
X59543Y-44843D01*
X59486Y-44843D01*
X59401Y-44814D01*
X59343Y-44757D01*
X59315Y-44700D01*
X59286Y-44586D01*
X59286Y-44500D01*
X59315Y-44386D01*
X59343Y-44329D01*
X59401Y-44271D01*
X59486Y-44243D01*
X59543Y-44243D01*
X59629Y-44271D01*
X59658Y-44300D01*
X59858Y-44243D02*
X60229Y-44243D01*
X60029Y-44471D01*
X60115Y-44471D01*
X60172Y-44500D01*
X60201Y-44529D01*
X60229Y-44586D01*
X60229Y-44729D01*
X60201Y-44786D01*
X60172Y-44814D01*
X60115Y-44843D01*
X59943Y-44843D01*
X59886Y-44814D01*
X59858Y-44786D01*
X58115Y-37743D02*
X58315Y-38343D01*
X58515Y-37743D01*
X59058Y-38286D02*
X59029Y-38314D01*
X58943Y-38343D01*
X58886Y-38343D01*
X58801Y-38314D01*
X58743Y-38257D01*
X58715Y-38200D01*
X58686Y-38086D01*
X58686Y-38000D01*
X58715Y-37886D01*
X58743Y-37829D01*
X58801Y-37771D01*
X58886Y-37743D01*
X58943Y-37743D01*
X59029Y-37771D01*
X59058Y-37800D01*
X59658Y-38286D02*
X59629Y-38314D01*
X59543Y-38343D01*
X59486Y-38343D01*
X59401Y-38314D01*
X59343Y-38257D01*
X59315Y-38200D01*
X59286Y-38086D01*
X59286Y-38000D01*
X59315Y-37886D01*
X59343Y-37829D01*
X59401Y-37771D01*
X59486Y-37743D01*
X59543Y-37743D01*
X59629Y-37771D01*
X59658Y-37800D01*
X59886Y-37800D02*
X59915Y-37771D01*
X59972Y-37743D01*
X60115Y-37743D01*
X60172Y-37771D01*
X60201Y-37800D01*
X60229Y-37857D01*
X60229Y-37914D01*
X60201Y-38000D01*
X59858Y-38343D01*
X60229Y-38343D01*
X58115Y-31243D02*
X58315Y-31843D01*
X58515Y-31243D01*
X59058Y-31786D02*
X59029Y-31814D01*
X58943Y-31843D01*
X58886Y-31843D01*
X58801Y-31814D01*
X58743Y-31757D01*
X58715Y-31700D01*
X58686Y-31586D01*
X58686Y-31500D01*
X58715Y-31386D01*
X58743Y-31329D01*
X58801Y-31271D01*
X58886Y-31243D01*
X58943Y-31243D01*
X59029Y-31271D01*
X59058Y-31300D01*
X59658Y-31786D02*
X59629Y-31814D01*
X59543Y-31843D01*
X59486Y-31843D01*
X59401Y-31814D01*
X59343Y-31757D01*
X59315Y-31700D01*
X59286Y-31586D01*
X59286Y-31500D01*
X59315Y-31386D01*
X59343Y-31329D01*
X59401Y-31271D01*
X59486Y-31243D01*
X59543Y-31243D01*
X59629Y-31271D01*
X59658Y-31300D01*
X60229Y-31843D02*
X59886Y-31843D01*
X60058Y-31843D02*
X60058Y-31243D01*
X60001Y-31329D01*
X59943Y-31386D01*
X59886Y-31414D01*
X59071Y-32657D02*
X59043Y-32714D01*
X59043Y-32800D01*
X59071Y-32885D01*
X59129Y-32943D01*
X59186Y-32971D01*
X59300Y-33000D01*
X59386Y-33000D01*
X59500Y-32971D01*
X59557Y-32943D01*
X59614Y-32885D01*
X59643Y-32800D01*
X59643Y-32743D01*
X59614Y-32657D01*
X59586Y-32628D01*
X59386Y-32628D01*
X59386Y-32743D01*
X59643Y-32371D02*
X59043Y-32371D01*
X59643Y-32028D01*
X59043Y-32028D01*
X59643Y-31742D02*
X59043Y-31742D01*
X59043Y-31599D01*
X59071Y-31514D01*
X59129Y-31456D01*
X59186Y-31428D01*
X59300Y-31399D01*
X59386Y-31399D01*
X59500Y-31428D01*
X59557Y-31456D01*
X59614Y-31514D01*
X59643Y-31599D01*
X59643Y-31742D01*
X64114Y-32986D02*
X64143Y-32900D01*
X64143Y-32757D01*
X64114Y-32700D01*
X64086Y-32671D01*
X64029Y-32643D01*
X63971Y-32643D01*
X63914Y-32671D01*
X63886Y-32700D01*
X63857Y-32757D01*
X63829Y-32871D01*
X63800Y-32929D01*
X63771Y-32957D01*
X63714Y-32986D01*
X63657Y-32986D01*
X63600Y-32957D01*
X63571Y-32929D01*
X63543Y-32871D01*
X63543Y-32729D01*
X63571Y-32643D01*
X64143Y-32386D02*
X63543Y-32386D01*
X63543Y-32243D01*
X63571Y-32158D01*
X63629Y-32100D01*
X63686Y-32072D01*
X63800Y-32043D01*
X63886Y-32043D01*
X64000Y-32072D01*
X64057Y-32100D01*
X64114Y-32158D01*
X64143Y-32243D01*
X64143Y-32386D01*
X63543Y-31672D02*
X63543Y-31558D01*
X63571Y-31500D01*
X63629Y-31443D01*
X63743Y-31415D01*
X63943Y-31415D01*
X64057Y-31443D01*
X64114Y-31500D01*
X64143Y-31558D01*
X64143Y-31672D01*
X64114Y-31729D01*
X64057Y-31786D01*
X63943Y-31815D01*
X63743Y-31815D01*
X63629Y-31786D01*
X63571Y-31729D01*
X63543Y-31672D01*
X65586Y-32628D02*
X65614Y-32657D01*
X65643Y-32743D01*
X65643Y-32800D01*
X65614Y-32885D01*
X65557Y-32943D01*
X65500Y-32971D01*
X65386Y-33000D01*
X65300Y-33000D01*
X65186Y-32971D01*
X65129Y-32943D01*
X65071Y-32885D01*
X65043Y-32800D01*
X65043Y-32743D01*
X65071Y-32657D01*
X65100Y-32628D01*
X65643Y-32371D02*
X65043Y-32371D01*
X65643Y-32028D02*
X65300Y-32285D01*
X65043Y-32028D02*
X65386Y-32371D01*
X65043Y-31657D02*
X65043Y-31543D01*
X65071Y-31485D01*
X65129Y-31428D01*
X65243Y-31400D01*
X65443Y-31400D01*
X65557Y-31428D01*
X65614Y-31485D01*
X65643Y-31543D01*
X65643Y-31657D01*
X65614Y-31714D01*
X65557Y-31771D01*
X65443Y-31800D01*
X65243Y-31800D01*
X65129Y-31771D01*
X65071Y-31714D01*
X65043Y-31657D01*
X62614Y-32814D02*
X62643Y-32728D01*
X62643Y-32585D01*
X62614Y-32528D01*
X62586Y-32499D01*
X62529Y-32471D01*
X62471Y-32471D01*
X62414Y-32499D01*
X62386Y-32528D01*
X62357Y-32585D01*
X62329Y-32699D01*
X62300Y-32757D01*
X62271Y-32785D01*
X62214Y-32814D01*
X62157Y-32814D01*
X62100Y-32785D01*
X62071Y-32757D01*
X62043Y-32699D01*
X62043Y-32557D01*
X62071Y-32471D01*
X62643Y-32214D02*
X62043Y-32214D01*
X62043Y-32071D01*
X62071Y-31986D01*
X62129Y-31928D01*
X62186Y-31900D01*
X62300Y-31871D01*
X62386Y-31871D01*
X62500Y-31900D01*
X62557Y-31928D01*
X62614Y-31986D01*
X62643Y-32071D01*
X62643Y-32214D01*
X62643Y-31614D02*
X62043Y-31614D01*
X61086Y-32457D02*
X61114Y-32486D01*
X61143Y-32572D01*
X61143Y-32629D01*
X61114Y-32714D01*
X61057Y-32772D01*
X61000Y-32800D01*
X60886Y-32829D01*
X60800Y-32829D01*
X60686Y-32800D01*
X60629Y-32772D01*
X60571Y-32714D01*
X60543Y-32629D01*
X60543Y-32572D01*
X60571Y-32486D01*
X60600Y-32457D01*
X61143Y-32200D02*
X60543Y-32200D01*
X61143Y-31857D02*
X60800Y-32114D01*
X60543Y-31857D02*
X60886Y-32200D01*
X61143Y-31600D02*
X60543Y-31600D01*
G54D12*
X61121Y-35885D02*
X60979Y-35985D01*
X61121Y-36057D02*
X60821Y-36057D01*
X60821Y-35942D01*
X60836Y-35914D01*
X60850Y-35899D01*
X60879Y-35885D01*
X60921Y-35885D01*
X60950Y-35899D01*
X60964Y-35914D01*
X60979Y-35942D01*
X60979Y-36057D01*
X61107Y-35642D02*
X61121Y-35671D01*
X61121Y-35728D01*
X61107Y-35757D01*
X61079Y-35771D01*
X60964Y-35771D01*
X60936Y-35757D01*
X60921Y-35728D01*
X60921Y-35671D01*
X60936Y-35642D01*
X60964Y-35628D01*
X60993Y-35628D01*
X61021Y-35771D01*
X61121Y-35528D02*
X60921Y-35371D01*
X60921Y-35528D02*
X61121Y-35371D01*
X60921Y-35299D02*
X60921Y-35185D01*
X60821Y-35257D02*
X61079Y-35257D01*
X61107Y-35242D01*
X61121Y-35214D01*
X61121Y-35185D01*
X61121Y-34928D02*
X61121Y-35100D01*
X61121Y-35014D02*
X60821Y-35014D01*
X60864Y-35043D01*
X60893Y-35071D01*
X60907Y-35100D01*
M02*
